<?xml version="1.0" standalone="no"?>
<!DOCTYPE svg PUBLIC "-//W3C//DTD SVG 1.1//EN" "http://www.w3.org/Graphics/SVG/1.1/DTD/svg11.dtd" >
<svg xmlns="http://www.w3.org/2000/svg">
<metadata>Generated by IcoMoon</metadata>
<defs>
<font id="icomoon" horiz-adv-x="1024">
<font-face units-per-em="1024" ascent="960" descent="-64" />
<missing-glyph horiz-adv-x="1024" />
<glyph unicode="&#x20;" horiz-adv-x="512" d="" />
<glyph unicode="&#xe600;" glyph-name="location" horiz-adv-x="640" d="M320 960c-177 0-320-143-320-320s160-416 320-704c160 288 320 527 320 704s-143 320-320 320zM320 512c-71 0-128 57-128 128s57 128 128 128 128-57 128-128-57-128-128-128z" />
<glyph unicode="&#xe601;" glyph-name="youtube" d="M731.429 438.857q0 21.143-17.143 30.857l-292.571 182.857q-17.714 11.429-37.143 1.143-18.857-10.286-18.857-32v-365.714q0-21.714 18.857-32 9.143-4.571 17.714-4.571 11.429 0 19.429 5.714l292.571 182.857q17.143 9.714 17.143 30.857zM1024 438.857q0-54.857-0.571-85.714t-4.857-78-12.857-84.286q-9.143-41.714-39.429-70.286t-70.857-33.143q-126.857-14.286-383.429-14.286t-383.429 14.286q-40.571 4.571-71.143 33.143t-39.714 70.286q-8 37.143-12.286 84.286t-4.857 78-0.571 85.714 0.571 85.714 4.857 78 12.857 84.286q9.143 41.714 39.429 70.286t70.857 33.143q126.857 14.286 383.429 14.286t383.429-14.286q40.571-4.571 71.143-33.143t39.714-70.286q8-37.143 12.286-84.286t4.857-78 0.571-85.714z" />
<glyph unicode="&#xe602;" glyph-name="menu" d="M128 170.667h768v85.333h-768v-85.333zM128 384h768v85.333h-768v-85.333zM128 682.667v-85.333h768v85.333h-768z" />
<glyph unicode="&#xe603;" glyph-name="social-facebook" d="M554.667 512h128v-128h-128v-298.667h-128v298.667h-128v128h128v53.547c0 50.731 15.957 114.816 47.701 149.845 31.744 35.115 71.381 52.608 118.869 52.608h89.429v-128h-89.6c-21.248 0-38.4-17.152-38.4-38.357v-89.643z" />
<glyph unicode="&#xe604;" glyph-name="social-twitter" d="M805.973 639.488c34.475 21.163 57.301 50.048 68.48 86.784-33.536-17.792-66.944-29.995-100.309-36.736-29.995 32.256-67.968 48.64-113.493 48.64-44.501 0-82.091-15.616-112.768-45.995-30.507-30.592-45.909-67.755-45.909-111.147 0-13.184 1.664-24.96 4.992-34.944-131.243 4.48-239.872 58.923-325.461 163.712-14.507-25.643-21.76-51.755-21.76-78.763 0-55.509 23.424-99.499 70.187-131.797-26.667 2.261-50.176 9.003-70.187 20.053 0-39.637 11.648-72.747 34.987-101.888 23.424-28.843 53.504-47.232 90.24-55.083-13.312-3.413-27.349-5.035-41.771-5.035-13.312 0-22.741 1.109-28.331 3.541 9.813-32.299 28.331-58.496 55.083-78.549 26.667-20.139 57.344-30.763 91.819-31.701-56.832-44.587-121.813-66.645-195.328-66.645-18.005 0-30.763 0.256-38.485 1.621 72.405-47.019 153.003-70.357 242.176-70.357 91.264 0 171.904 23.125 242.091 69.376 70.187 45.995 121.984 102.741 155.264 169.557 33.451 66.731 50.005 136.192 50.005 208.725v19.968c32.341 24.32 58.496 51.712 78.507 81.963-29.013-12.501-59.008-20.992-90.027-25.301z" />
<glyph unicode="&#xe605;" glyph-name="close" d="M810.667 768q18.333 0 30.5-12.167t12.167-30.5q0-18-12.333-30.333l-268.667-268.333 268.667-268.333q12.333-12.333 12.333-30.333 0-18.333-12.167-30.5t-30.5-12.167q-18 0-30.333 12.333l-268.333 268.667-268.333-268.667q-12.333-12.333-30.333-12.333-18.333 0-30.5 12.167t-12.167 30.5q0 18 12.333 30.333l268.667 268.333-268.667 268.333q-12.333 12.333-12.333 30.333 0 18.333 12.167 30.5t30.5 12.167q18 0 30.333-12.333l268.333-268.667 268.333 268.667q12.333 12.333 30.333 12.333z" />
<glyph unicode="&#xe606;" glyph-name="arrow-right" d="M389.171 285.798c-13.722-13.875-13.722-36.301 0-50.125 13.67-13.875 35.891-13.875 49.613 0l196.096 200.038c13.722 13.875 13.722 36.301 0 50.125l-196.096 200.090c-13.722 13.875-35.891 13.875-49.613 0s-13.722-36.25-0.051-50.074l160.819-175.053-160.768-175.002z" />
<glyph unicode="&#xe607;" glyph-name="arrow-left" d="M634.829 285.798c13.722-13.875 13.722-36.301 0-50.125-13.722-13.875-35.891-13.875-49.613 0l-196.096 200.038c-13.722 13.875-13.722 36.301 0 50.125l196.096 200.090c13.722 13.875 35.891 13.875 49.613 0s13.722-36.25 0-50.125l-160.768-175.002 160.768-175.002z" />
<glyph unicode="&#xe608;" glyph-name="arrow-down" d="M687.002 583.629c13.875 13.722 36.301 13.722 50.125 0 13.875-13.722 13.875-35.891 0-49.613l-200.038-196.096c-13.875-13.722-36.301-13.722-50.125 0l-200.090 196.096c-13.824 13.722-13.824 35.891 0 49.613 13.875 13.722 36.25 13.722 50.125 0l175.002-160.768 175.002 160.768z" />
<glyph unicode="&#xe609;" glyph-name="arrow-up" d="M336.947 337.971c-13.875-13.722-36.25-13.722-50.125 0-13.824 13.722-13.875 35.891 0 49.664l200.090 195.994c13.875 13.722 36.301 13.722 50.125 0l200.090-196.045c13.875-13.773 13.875-35.942 0-49.664s-36.25-13.722-50.125 0l-175.053 160.819-175.002-160.768z" />
<glyph unicode="&#xe60a;" glyph-name="phone" horiz-adv-x="805" d="M804.571 242.286q0-15.429-5.714-40.286t-12-39.143q-12-28.571-69.714-60.571-53.714-29.143-106.286-29.143-15.429 0-30 2t-32.857 7.143-27.143 8.286-31.714 11.714-28 10.286q-56 20-100 47.429-73.143 45.143-151.143 123.143t-123.143 151.143q-27.429 44-47.429 100-1.714 5.143-10.286 28t-11.714 31.714-8.286 27.143-7.143 32.857-2 30q0 52.571 29.143 106.286 32 57.714 60.571 69.714 14.286 6.286 39.143 12t40.286 5.714q8 0 12-1.714 10.286-3.429 30.286-43.429 6.286-10.857 17.143-30.857t20-36.286 17.714-30.571q1.714-2.286 10-14.286t12.286-20.286 4-16.286q0-11.429-16.286-28.571t-35.429-31.429-35.429-30.286-16.286-26.286q0-5.143 2.857-12.857t4.857-11.714 8-13.714 6.571-10.857q43.429-78.286 99.429-134.286t134.286-99.429q1.143-0.571 10.857-6.571t13.714-8 11.714-4.857 12.857-2.857q10.286 0 26.286 16.286t30.286 35.429 31.429 35.429 28.571 16.286q8 0 16.286-4t20.286-12.286 14.286-10q14.286-8.571 30.571-17.714t36.286-20 30.857-17.143q40-20 43.429-30.286 1.714-4 1.714-12z" />
<glyph unicode="&#xe60e;" glyph-name="staff" horiz-adv-x="1126" d="M768 590.507c0-84.831-68.769-153.6-153.6-153.6s-153.6 68.769-153.6 153.6c0 84.831 68.769 153.6 153.6 153.6s153.6-68.769 153.6-153.6zM337.92 744.107c0-79.176-64.184-143.36-143.36-143.36s-143.36 64.184-143.36 143.36c0 79.176 64.184 143.36 143.36 143.36s143.36-64.184 143.36-143.36zM1075.2 160.427c0-113.108-91.692-204.8-204.8-204.8s-204.8 91.692-204.8 204.8c0 113.108 91.692 204.8 204.8 204.8s204.8-91.692 204.8-204.8z" />
<glyph unicode="&#xe612;" glyph-name="search" d="M1000.64 70.848l-184.896 184.896c50.688 72.576 80.64 160.704 80.64 255.936 0 247.424-200.64 448-448 448s-448-200.576-448-448c0-247.424 200.576-448 448-448 95.232 0 183.424 29.952 256 80.64l184.896-184.896c30.72-30.72 80.64-30.72 111.36 0s30.72 80.576 0 111.424zM448.32 191.616c-176.704 0-320 143.232-320 320s143.296 320 320 320c176.768 0 320-143.232 320-320 0.064-176.768-143.168-320-320-320z" />
<glyph unicode="&#xe61d;" glyph-name="envelope" d="M0 149.334c0-47.146 38.186-85.334 85.334-85.334h853.334c47.146 0 85.334 38.186 85.334 85.334l-0.002 576c0 47.146-38.186 85.334-85.334 85.334l-853.332-0.002c-47.146 0-85.334-38.186-85.334-85.334v-575.998zM314.026 436.694l-195.2 196.48c-16.192 16.214-16.192 42.454 0 58.666 16.234 16.214 42.474 16.214 58.666 0l311.468-311.872c12.586-12.374 33.302-12.374 45.674 0l311.872 311.872c16.214 16.214 42.454 16.214 58.666 0 16.214-16.214 16.214-42.454 0-58.666l-195.414-196.48 195.414-195.178c16.214-16.214 16.214-42.454 0-58.666s-42.454-16.214-58.666 0l-195.2 194.986c0 0-60.992-62.080-72.086-73.174-17.3-16.876-41.194-27.328-67.22-27.328-26.454 0-50.346 10.666-67.626 27.968-11.306 11.094-71.894 72.512-71.894 72.512l-195.008-194.986c-16.192-16.214-42.432-16.214-58.666 0-16.192 16.214-16.192 42.454 0 58.666l195.22 195.2z" />
<glyph unicode="&#xe900;" glyph-name="BANDERA" horiz-adv-x="1365" d="M2.032-2.031l-2.032 828.952 8.127 6.095c142.222 103.619 272.254 130.032 446.984 87.365l16.254-4.063 2.032-824.889-26.413 4.063c-166.603 40.635-282.413 20.317-412.444-75.175l-32.508-22.349zM40.635 804.572l2.032-729.397c119.873 79.238 237.714 97.524 390.095 65.016l-2.032 743.619c-152.381 32.508-264.127 10.159-390.095-79.238zM896 739.556c0-260.063 0-522.159 2.032-782.222-152.381 44.698-294.603 115.81-446.984 160.508 0 260.063 0 522.159-2.032 782.222 154.413-44.698 296.635-115.81 446.984-160.508zM918.349-71.111l-26.413 8.127c-77.206 22.349-152.381 52.825-225.524 81.27-71.111 28.444-146.286 56.889-221.46 79.238l-14.222 4.063v824.889l24.381-8.127c77.206-22.349 152.381-52.825 225.524-81.27 71.111-28.444 146.286-56.889 221.46-79.238l14.222-4.063 2.032-824.889zM471.365 132.064c71.111-22.349 142.222-48.762 211.302-77.206 62.984-24.381 130.032-50.794 195.048-71.111l-2.032 739.556c-71.111 22.349-142.222 48.762-211.302 77.206-62.984 24.381-130.032 50.794-195.048 71.111l2.032-739.556zM1054.476-85.333c-50.794 0-103.619 6.095-160.508 20.317l-16.254 4.063-2.032 826.921 24.381-6.095c168.635-40.635 300.698-18.286 428.698 75.175l34.54 22.349 2.032-833.016-8.127-6.095c-95.492-69.079-193.016-103.619-302.73-103.619zM918.349-28.444c158.476-34.54 284.444-12.19 406.349 73.143l-2.032 735.492c-121.905-79.238-249.905-99.556-406.349-65.016l2.032-743.619z" />
<glyph unicode="&#xe901;" glyph-name="CALENDARIO" horiz-adv-x="853" d="M721.285 832.779h-87.202v75.99c0 16.195-13.703 29.898-29.898 29.898s-29.898-13.703-29.898-29.898v-75.99h-303.961v75.99c0 16.195-13.703 29.898-29.898 29.898-14.949 0-28.652-13.703-28.652-29.898v-75.99h-79.727c-72.253 0-132.049-59.796-132.049-132.049v-654.015c0-73.499 59.796-132.049 132.049-132.049h589.236c73.499 0 132.049 59.796 132.049 132.049v654.015c0 72.253-58.55 132.049-132.049 132.049zM132.049 774.229h79.727v-36.127c0-16.195 13.703-29.898 29.898-29.898s29.898 13.703 29.898 29.898v36.127h303.961v-36.127c0-16.195 13.703-29.898 29.898-29.898s29.898 13.703 29.898 29.898v36.127h87.202c41.109 0 73.499-33.635 73.499-73.499v-73.499h-737.479v73.499c0 39.864 33.635 73.499 73.499 73.499zM721.285-26.783h-589.236c-41.109 0-73.499 32.389-73.499 73.499v521.966h736.234v-521.966c0-39.864-32.389-73.499-73.499-73.499zM275.309 487.708h-120.837c-16.195 0-29.898-13.703-29.898-29.898v-120.837c0-16.195 13.703-29.898 29.898-29.898h120.837c16.195 0 29.898 13.703 29.898 29.898v120.837c-1.246 16.195-13.703 29.898-29.898 29.898zM245.411 366.871h-62.287v62.287h62.287v-62.287zM487.085 485.217h-120.837c-16.195 0-29.898-13.703-29.898-29.898v-120.837c0-16.195 13.703-29.898 29.898-29.898h120.837c16.195 0 29.898 13.703 29.898 29.898v120.837c0 17.44-13.703 29.898-29.898 29.898zM457.187 364.38h-62.287v62.287h62.287v-62.287zM697.616 485.217h-120.837c-16.195 0-29.898-13.703-29.898-29.898v-120.837c0-16.195 13.703-29.898 29.898-29.898h120.837c16.195 0 29.898 13.703 29.898 29.898v120.837c-1.246 17.44-13.703 29.898-29.898 29.898zM667.718 364.38h-62.287v62.287h62.287v-62.287zM275.309 262.229h-120.837c-16.195 0-29.898-13.703-29.898-29.898v-120.837c0-16.195 13.703-29.898 29.898-29.898h120.837c16.195 0 29.898 13.703 29.898 29.898v120.837c-1.246 17.44-13.703 29.898-29.898 29.898zM245.411 141.392h-62.287v62.287h62.287v-62.287zM484.594 262.229h-120.837c-16.195 0-29.898-13.703-29.898-29.898v-120.837c0-16.195 13.703-29.898 29.898-29.898h120.837c16.195 0 29.898 13.703 29.898 29.898v120.837c0 17.44-13.703 29.898-29.898 29.898zM455.942 141.392h-62.287v62.287h62.287v-62.287zM695.124 262.229h-120.837c-16.195 0-29.898-13.703-29.898-29.898v-120.837c0-16.195 13.703-29.898 29.898-29.898h120.837c16.195 0 29.898 13.703 29.898 29.898v120.837c0 17.44-13.703 29.898-29.898 29.898zM665.226 141.392h-62.287v62.287h62.287v-62.287z" />
<glyph unicode="&#xe902;" glyph-name="CERDO" horiz-adv-x="1431" d="M261.833-85.333c-12.962 0-23.332 0-31.109 0-5.185 0-10.37 0-15.554 0 0 0 0 0 0 0s-2.592 0-2.592 0c-121.843 20.739-212.577 238.501-212.577 513.296 0 285.165 101.104 508.111 228.132 510.704 15.554 0 225.539 12.962 383.676-111.473 95.919-75.18 137.397-137.397 165.914-181.468 20.739-28.516 33.701-51.848 57.033-67.403 28.516-20.739 57.033-33.701 80.365-44.071 31.109-12.962 54.441-25.924 72.587-46.663 10.37-12.962 15.554-25.924 18.147-36.294h129.62c-2.592 10.37-2.592 20.739-2.592 31.109 0 82.957 67.403 150.359 150.359 150.359s150.359-67.403 150.359-150.359c0-51.848-25.924-98.511-67.403-127.028 15.554-20.739 25.924-49.256 25.924-75.18 0-69.995-57.033-129.62-129.62-129.62-69.995 0-129.62 57.033-129.62 129.62 0 2.592 0 5.185 0 10.37l-134.805 5.185c-2.592-5.185-5.185-7.777-10.37-12.962-15.554-18.147-41.478-28.516-72.587-38.886-25.924-10.37-51.848-20.739-80.365-36.294-23.332-12.962-36.294-31.109-57.033-54.441-28.516-36.294-69.995-88.142-165.914-150.359-119.251-77.772-272.203-88.142-349.975-88.142zM217.762-43.855c2.592 0 7.777 0 12.962 0 46.663 2.592 90.734 49.256 127.028 132.213 38.886 90.734 59.625 209.985 59.625 339.605s-20.739 248.871-59.625 339.605c-36.294 82.957-82.957 132.213-129.62 132.213s-93.327-49.256-129.62-132.213c-38.886-90.734-59.625-209.985-59.625-339.605s20.739-248.871 59.625-339.605c33.701-80.365 75.18-127.028 119.251-132.213zM321.458 894.596c80.365-77.772 137.397-256.648 137.397-469.225s-57.033-394.046-137.397-469.225c77.772 5.185 184.061 23.332 267.018 77.772 90.734 59.625 127.028 106.289 158.137 142.582 20.739 25.924 38.886 46.663 67.403 64.81 31.109 18.147 62.218 31.109 88.142 38.886 25.924 10.37 46.663 18.147 57.033 28.516s12.962 20.739 15.554 28.516c0 2.592 0 7.777 0 12.962 0 2.592 0 2.592 0 5.185s0 7.777 0 10.37v33.701c0 5.185 0 10.37 0 15.554 0 15.554 0 28.516-15.554 49.256-10.37 12.962-31.109 23.332-57.033 33.701s-57.033 25.924-88.142 46.663c-28.516 20.739-46.663 46.663-67.403 77.772-28.516 44.071-67.403 101.104-158.137 173.691-88.142 67.403-194.43 93.327-267.018 98.511zM1011.038 334.637l142.582-7.777c5.185 0 10.37-2.592 15.554-7.777 2.592-5.185 5.185-10.37 2.592-15.554-2.592-7.777-2.592-15.554-2.592-23.332 0-49.256 41.478-90.734 90.734-90.734s90.734 41.478 90.734 90.734c0 25.924-10.37 49.256-31.109 67.403-5.185 5.185-7.777 10.37-5.185 18.147 0 7.777 5.185 12.962 10.37 15.554 41.478 18.147 67.403 57.033 67.403 103.696 0 62.218-49.256 111.473-111.473 111.473s-111.473-49.256-111.473-111.473c0-15.554 2.592-28.516 7.777-41.478 2.592-5.185 2.592-12.962-2.592-18.147-2.592-5.185-10.37-7.777-15.554-7.777h-150.359l2.592-82.957zM207.392 223.163c-41.478 0-72.587 51.848-72.587 116.658 0 67.403 31.109 116.658 72.587 116.658s72.587-51.848 72.587-116.658c0-67.403-31.109-116.658-72.587-116.658zM207.392 420.186c-12.962 0-33.701-31.109-33.701-77.772s20.739-77.772 33.701-77.772 33.701 31.109 33.701 77.772-20.739 77.772-33.701 77.772zM150.359 697.573c-2.592 0-2.592 0-5.185 0-10.37 5.185-15.554 15.554-12.962 25.924 23.332 77.772 88.142 103.696 90.734 106.289 10.37 2.592 20.739-2.592 25.924-10.37 2.592-10.37-2.592-20.739-10.37-25.924-2.592 0-51.848-20.739-67.403-80.365-5.185-10.37-12.962-15.554-20.739-15.554z" />
<glyph unicode="&#xe903;" glyph-name="CERRAR" d="M611.651 423.231l398.604 398.604c27.49 27.49 27.49 68.725 0 96.215s-68.725 27.49-96.215 0l-398.604-398.604-398.604 398.604c-27.49 27.49-68.725 27.49-96.215 0s-27.49-68.725 0-96.215l398.604-398.604-398.604-398.604c-27.49-27.49-27.49-68.725 0-96.215 13.745-13.745 34.362-20.617 48.107-20.617s34.362 6.872 48.107 20.617l398.604 398.604 398.604-398.604c13.745-13.745 34.362-20.617 48.107-20.617s34.362 6.872 48.107 20.617c27.49 27.49 27.49 68.725 0 96.215l-398.604 398.604z" />
<glyph unicode="&#xe904;" glyph-name="CHECK" horiz-adv-x="1398" d="M1235.862 910.419l-762.703-762.703-310.731 310.731c-35.31 35.31-98.869 35.31-134.179 0s-35.31-98.869 0-134.179l374.29-374.29c21.186-21.186 42.372-28.248 70.621-28.248s49.434 7.062 70.621 28.248c0 0 0 0 0 0l826.262 826.262c35.31 35.31 35.31 98.869 0 134.179s-98.869 35.31-134.179 0v0z" />
<glyph unicode="&#xe905;" glyph-name="CINTA" horiz-adv-x="725" d="M549.59 198.535l32.405-92.030 37.59-107.585c-6.481 1.296-14.258 2.592-20.739 3.889l-6.481 1.296c-15.554 2.592-29.813 5.185-45.367 7.777-3.889 1.296-6.481 1.296-10.37 1.296-18.147 0-28.516-10.37-32.405-14.258-14.258-14.258-29.813-28.516-45.367-42.775l-31.109 86.846-38.886 110.177c54.441 2.592 107.585 18.147 160.729 45.367zM176.284 198.535c51.848-27.22 104.992-42.775 158.137-46.663l-69.995-197.023c-14.258 14.258-29.813 28.516-44.071 42.775-10.37 10.37-20.739 15.554-34.997 15.554-3.889 0-7.777 0-11.666-1.296-23.332-3.889-46.663-7.777-69.995-11.666l7.777 22.035 64.81 176.284zM561.256 230.94c-66.106-38.886-133.509-58.329-199.615-58.329s-132.213 19.443-199.615 57.033c-31.109-86.846-60.922-172.395-92.030-259.241 2.592 0 5.185 0 7.777 0 1.296 0 2.592 0 3.889 0 32.405 5.185 64.81 10.37 97.215 16.851 2.592 0 5.185 1.296 6.481 1.296 6.481 0 11.666-2.592 18.147-7.777 22.035-23.332 46.663-45.367 69.995-67.403 28.516 81.661 58.329 163.322 88.142 248.871 29.813-85.549 59.625-168.506 88.142-248.871 23.332 22.035 47.959 44.071 71.291 67.403 5.185 5.185 10.37 7.777 16.851 7.777 1.296 0 3.889 0 5.185 0 16.851-3.889 34.997-6.481 51.848-9.073 19.443-2.592 37.59-6.481 59.625-9.073-32.405 88.142-62.218 173.691-93.327 260.537v0zM259.241 420.186l3.889 23.332c1.296 9.073 2.592 16.851 3.889 24.628 3.889 19.443 6.481 38.886 10.37 58.329 1.296 7.777 0 11.666-6.481 18.147-14.258 12.962-27.22 28.516-40.182 41.478-5.185 5.185-10.37 11.666-15.554 16.851l-15.554 15.554 42.775 6.481c20.739 2.592 42.775 6.481 63.514 10.37 1.296 0 3.889 2.592 5.185 3.889 10.37 19.443 19.443 38.886 29.813 58.329l20.739 42.775 18.147-34.997c5.185-9.073 9.073-18.147 14.258-27.22 1.296-2.592 2.592-5.185 3.889-7.777 3.889-7.777 7.777-15.554 10.37-23.332 2.592-9.073 7.777-11.666 19.443-12.962 18.147-1.296 36.294-5.185 54.441-7.777 7.777-1.296 14.258-2.592 22.035-2.592l22.035-2.592-15.554-15.554c-5.185-5.185-9.073-10.37-14.258-15.554-10.37-11.666-22.035-24.628-33.701-34.997-14.258-11.666-16.851-22.035-12.962-36.294 3.889-15.554 6.481-32.405 9.073-49.256 1.296-7.777 2.592-15.554 3.889-23.332l3.889-23.332-20.739 10.37c-7.777 3.889-15.554 7.777-22.035 11.666-16.851 9.073-33.701 16.851-49.256 25.924-9.073 5.185-14.258 5.185-23.332 0-15.554-9.073-32.405-18.147-49.256-25.924-7.777-3.889-14.258-7.777-22.035-11.666l-20.739-12.962zM362.937 496.662c7.777 0 15.554-2.592 23.332-7.777 15.554-9.073 31.109-16.851 47.959-25.924 1.296 0 1.296-1.296 2.592-1.296 0 0 0 0 0 1.296-2.592 16.851-5.185 32.405-9.073 46.663-6.481 24.628-1.296 42.775 20.739 60.922 11.666 9.073 20.739 20.739 31.109 32.405 0 0 0 0 0 0-16.851 2.592-34.997 5.185-53.144 7.777-14.258 1.296-31.109 6.481-38.886 28.516-2.592 6.481-5.185 12.962-9.073 19.443-1.296 2.592-2.592 6.481-5.185 9.073-3.889 7.777-6.481 14.258-10.37 22.035v-1.296c-10.37-20.739-19.443-40.182-29.813-59.625-3.889-7.777-12.962-14.258-20.739-15.554-22.035-3.889-42.775-6.481-64.81-10.37 0 0 1.296-1.296 1.296-1.296 12.962-14.258 25.924-27.22 38.886-41.478 11.666-11.666 15.554-23.332 12.962-38.886-3.889-18.147-6.481-37.59-10.37-57.033 0-1.296 0-1.296 0-2.592 1.296 0 1.296 1.296 2.592 1.296 16.851 9.073 32.405 16.851 47.959 25.924 6.481 5.185 14.258 7.777 22.035 7.777zM173.691 425.371c6.481-7.777 12.962-14.258 16.851-19.443-28.516-28.516-57.033-55.737-85.549-84.253-6.481 7.777-15.554 18.147-25.924 28.516 32.405 24.628 63.514 49.256 94.623 75.18zM343.494 216.682c1.296 37.59 3.889 73.884 5.185 110.177 0 7.777 5.185 9.073 11.666 7.777s18.147 6.481 18.147-6.481c2.592-36.294 3.889-73.884 6.481-111.473-14.258 0-27.22 0-41.478 0zM566.441 446.11c5.185 9.073 9.073 15.554 14.258 24.628 34.997-18.147 69.995-36.294 106.289-54.441-6.481-11.666-12.962-23.332-20.739-36.294-33.701 22.035-66.106 42.775-99.808 66.106zM460.152 228.348c-14.258-2.592-27.22-5.185-40.182-9.073-6.481 40.182-12.962 77.772-18.147 117.954 9.073 2.592 18.147 3.889 28.516 6.481 7.777-37.59 18.147-75.18 29.813-115.362zM449.782 351.487c9.073 3.889 16.851 7.777 25.924 11.666 18.147-34.997 36.294-69.995 54.441-106.289-12.962-5.185-24.628-10.37-37.59-16.851-14.258 36.294-28.516 73.884-42.775 111.473zM699.949 710.535c3.889-12.962 9.073-25.924 12.962-38.886-27.22-7.777-53.144-14.258-79.068-20.739-5.185-1.296-10.37-2.592-15.554-3.889-25.924-6.481-25.924-6.481-29.813 22.035 36.294 12.962 72.587 27.22 111.473 41.478zM233.316 372.226c-22.035-33.701-42.775-66.106-64.81-101.104-11.666 7.777-22.035 15.554-33.701 24.628 25.924 31.109 50.552 60.922 75.18 93.327 7.777-5.185 14.258-11.666 23.332-16.851zM605.327 589.989c-1.296 10.37-2.592 18.147-3.889 28.516 40.182 6.481 77.772 12.962 117.954 19.443 1.296-14.258 2.592-27.22 3.889-41.478-38.886-2.592-77.772-3.889-117.954-6.481zM559.959 273.715c-22.035 33.701-42.775 66.106-64.81 99.808 7.777 5.185 15.554 11.666 23.332 16.851 24.628-31.109 50.552-60.922 75.18-93.327-11.666-7.777-22.035-15.554-33.701-23.332zM127.028 514.809c2.592-9.073 6.481-18.147 9.073-27.22-37.59-14.258-73.884-28.516-111.473-42.775-3.889 12.962-9.073 25.924-12.962 38.886 38.886 10.37 76.476 20.739 115.362 31.109zM308.496 219.275c-14.258 2.592-27.22 5.185-40.182 9.073 10.37 38.886 20.739 76.476 31.109 115.362 9.073-1.296 18.147-3.889 28.516-5.185-6.481-40.182-12.962-79.068-19.443-119.251zM121.843 615.913c-1.296-10.37-1.296-18.147-2.592-28.516-38.886 2.592-79.068 3.889-119.251 6.481 1.296 14.258 2.592 27.22 3.889 41.478 40.182-6.481 79.068-12.962 117.954-19.443zM514.592 766.272c-7.777 5.185-15.554 10.37-23.332 16.851 22.035 33.701 42.775 66.106 64.81 101.104 11.666-7.777 22.035-15.554 33.701-24.628-24.628-31.109-49.256-62.218-75.18-93.327zM207.392 764.976c-25.924 31.109-50.552 62.218-75.18 93.327 10.37 7.777 20.739 15.554 32.405 23.332 22.035-33.701 42.775-66.106 64.81-101.104-6.481-5.185-14.258-10.37-22.035-15.554zM324.051 818.12c-7.777-1.296-14.258-3.889-22.035-5.185-2.592 0-7.777 2.592-7.777 5.185-10.37 34.997-19.443 71.291-29.813 108.881 14.258 2.592 25.924 5.185 40.182 7.777 7.777-38.886 12.962-77.772 19.443-116.658zM527.554 901.077c-18.147-36.294-36.294-71.291-54.441-106.289-9.073 3.889-16.851 7.777-25.924 11.666 14.258 37.59 28.516 73.884 42.775 111.473 11.666-6.481 24.628-11.666 37.59-16.851zM235.909 237.421c-12.962 6.481-24.628 11.666-37.59 16.851 18.147 36.294 36.294 69.995 54.441 106.289 9.073-3.889 16.851-7.777 25.924-11.666-14.258-36.294-28.516-72.587-42.775-111.473zM646.805 352.783c-10.37-10.37-18.147-20.739-27.22-29.813-28.516 28.516-55.737 55.737-84.253 84.253 5.185 6.481 11.666 12.962 18.147 20.739 31.109-25.924 60.922-50.552 93.327-75.18zM59.625 377.411c-6.481 11.666-12.962 23.332-20.739 36.294 34.997 18.147 69.995 36.294 106.289 54.441 5.185-7.777 9.073-15.554 14.258-24.628-32.405-22.035-66.106-44.071-99.808-66.106zM123.139 536.844c-38.886-6.481-77.772-12.962-117.954-19.443-1.296 12.962-2.592 25.924-5.185 41.478 40.182 2.592 79.068 3.889 119.251 6.481 1.296-10.37 2.592-19.443 3.889-28.516zM602.734 539.437c1.296 9.073 2.592 18.147 2.592 28.516 38.886-1.296 77.772-3.889 119.251-5.185-1.296-14.258-2.592-27.22-3.889-41.478-40.182 6.481-77.772 11.666-117.954 18.147zM232.020 916.632c14.258-37.59 28.516-73.884 42.775-111.473-9.073-3.889-16.851-7.777-25.924-11.666-18.147 34.997-36.294 69.995-54.441 106.289 12.962 5.185 24.628 10.37 37.59 16.851zM416.081 936.075c14.258-2.592 25.924-5.185 40.182-9.073-10.37-38.886-20.739-76.476-31.109-115.362-9.073 2.592-18.147 3.889-28.516 6.481 6.481 40.182 12.962 79.068 19.443 117.954zM714.208 487.589c-3.889-14.258-9.073-25.924-12.962-40.182-37.59 14.258-73.884 28.516-111.473 42.775 2.592 9.073 5.185 16.851 9.073 27.22 37.59-9.073 75.18-19.443 115.362-29.813zM136.101 665.168c-2.592-9.073-5.185-18.147-9.073-27.22-38.886 10.37-76.476 20.739-115.362 31.109 3.889 12.962 7.777 25.924 12.962 38.886 36.294-14.258 73.884-28.516 111.473-42.775zM58.329 775.345c33.701-22.035 66.106-42.775 99.808-64.81-5.185-9.073-9.073-16.851-14.258-24.628-36.294 18.147-71.291 36.294-107.585 54.441 7.777 11.666 14.258 22.035 22.035 34.997zM578.106 688.5c-5.185 9.073-9.073 16.851-14.258 24.628 33.701 22.035 66.106 42.775 99.808 64.81 7.777-11.666 14.258-23.332 20.739-36.294-34.997-18.147-68.699-34.997-106.289-53.144zM374.603 820.713c-10.37 0-18.147 0-28.516 0-2.592 38.886-3.889 77.772-6.481 117.954 14.258 0 27.22 0 41.478 0-1.296-38.886-3.889-77.772-6.481-117.954zM104.992 833.675c28.516-28.516 57.033-57.033 84.253-84.253-5.185-6.481-11.666-12.962-18.147-20.739-31.109 25.924-62.218 50.552-93.327 75.18 10.37 10.37 19.443 19.443 27.22 29.813zM618.289 833.675c7.777-7.777 15.554-18.147 25.924-28.516-31.109-24.628-62.218-50.552-93.327-75.18-6.481 6.481-12.962 12.962-18.147 19.443 29.813 28.516 57.033 55.737 85.549 84.253z" />
<glyph unicode="&#xe906;" glyph-name="CLUB-REDONDOS" horiz-adv-x="842" d="M535.227 544.821c-8.079 0-18.178-2.020-26.256-4.039-18.178 30.296-50.493 50.493-86.848 50.493s-70.69-20.197-86.848-50.493c-8.079 2.020-18.178 4.039-26.256 4.039-56.552 0-100.986-46.454-100.986-100.986 0-56.552 46.454-100.986 100.986-100.986 2.020 0 4.039 0 6.059 0v-113.105c0-14.138 12.118-26.256 26.256-26.256h163.598c14.138 0 26.256 12.118 26.256 26.256v113.105c2.020 0 4.039 0 6.059 0 56.552 0 100.986 46.454 100.986 100.986s-46.454 100.986-103.006 100.986zM535.227 393.342c-8.079 0-14.138 2.020-20.197 4.039-8.079 4.039-18.178 4.039-24.237-2.020-8.079-4.039-12.118-14.138-12.118-22.217v-119.164h-111.085v119.164c0 8.079-4.039 18.178-12.118 22.217s-16.158 6.059-24.237 2.020c-6.059-4.039-14.138-4.039-20.197-4.039-26.256 0-48.473 22.217-48.473 48.473s22.217 48.473 48.473 48.473c10.099 0 18.178-2.020 26.256-8.079 8.079-4.039 16.158-6.059 24.237-2.020s14.138 10.099 16.158 18.178c4.039 22.217 24.237 38.375 48.473 38.375 22.217 0 42.414-16.158 48.473-38.375 2.020-8.079 8.079-16.158 16.158-18.178 8.079-4.039 16.158-2.020 24.237 2.020 8.079 6.059 16.158 8.079 26.256 8.079 26.256 0 48.473-22.217 48.473-48.473-4.039-26.256-26.256-48.473-54.533-48.473zM450.398 64.127c0-14.138-12.118-26.256-26.256-26.256h-4.039c-14.138 0-26.256 12.118-26.256 26.256s12.118 26.256 26.256 26.256h4.039c14.138 0 26.256-12.118 26.256-26.256zM731.14 938.667h-620.055c-60.592 0-111.085-50.493-111.085-111.085v-801.83c0-60.592 50.493-111.085 111.085-111.085h620.055c60.592 0 111.085 50.493 111.085 111.085v801.83c0 60.592-50.493 111.085-111.085 111.085zM220.15 886.154h98.966v-84.828l-38.375 16.158c-6.059 2.020-14.138 2.020-22.217 0l-38.375-18.178v86.848zM789.712 90.383h-214.091c-14.138 0-26.256-12.118-26.256-26.256s12.118-26.256 26.256-26.256h214.091v-12.118c0-32.316-26.256-58.572-58.572-58.572h-620.055c-32.316 0-58.572 26.256-58.572 58.572v12.118h214.091c14.138 0 26.256 12.118 26.256 26.256s-12.118 26.256-26.256 26.256h-214.091v737.199c0 32.316 26.256 58.572 58.572 58.572h56.552v-125.223c0-8.079 4.039-16.158 12.118-22.217 8.079-4.039 16.158-6.059 24.237-2.020l64.631 28.276 64.631-28.276c8.079-4.039 18.178-2.020 24.237 2.020 8.079 4.039 12.118 12.118 12.118 22.217v125.223h361.531c32.316 0 58.572-26.256 58.572-58.572v-737.199z" />
<glyph unicode="&#xe907;" glyph-name="COMILLAS1" horiz-adv-x="1311" d="M248.169 697.726c-62.645-77.101-93.967-154.202-93.967-231.304 0-33.732 4.819-62.645 12.047-84.329 45.779 36.141 98.786 53.007 156.612 53.007 74.692 0 139.746-24.094 192.753-69.873s79.511-110.833 79.511-190.344c0-48.188-12.047-93.967-36.141-132.518s-57.826-69.873-98.786-93.967c-40.96-21.685-86.739-33.732-134.927-33.732-108.424 0-192.753 43.369-250.579 130.108-48.188 72.282-72.282 161.431-72.282 267.445 0 137.336 36.141 257.807 108.424 366.231 69.873 106.014 178.296 192.753 325.271 260.216l38.551-74.692c-86.739-33.732-163.84-91.558-226.485-166.249zM966.174 697.726c-62.645-77.101-93.967-154.202-93.967-231.304 0-33.732 4.819-62.645 12.047-84.329 48.188 36.141 101.195 53.007 156.612 53.007 77.101 0 142.155-24.094 192.753-69.873s77.101-110.833 77.101-190.344c0-74.692-26.504-134.927-79.511-185.525s-115.652-74.692-192.753-74.692c-108.424 0-192.753 43.369-250.579 130.108-48.188 72.282-72.282 161.431-72.282 267.445 0 137.336 36.141 257.807 108.424 366.231s180.706 195.162 327.68 260.216l38.551-74.692c-84.329-33.732-161.431-91.558-224.075-166.249z" />
<glyph unicode="&#xe908;" glyph-name="COMILLAS2" horiz-adv-x="1313" d="M344.738 154.707c63.84 76.608 94.484 153.217 94.484 232.379 0 33.197-5.107 61.287-12.768 86.823-48.519-35.751-99.591-53.626-155.771-53.626-76.608 0-140.449 22.983-194.075 71.501s-76.608 109.805-76.608 188.968c0 74.055 25.536 135.342 79.162 186.414 51.072 45.965 114.913 71.501 191.521 71.501 109.805 0 191.521-43.411 250.254-130.234 48.519-71.501 71.501-160.878 71.501-268.13 0-135.342-35.751-257.915-107.252-367.721-71.501-107.252-181.307-194.075-326.863-260.469l-38.304 74.055c86.823 35.751 160.878 91.93 224.718 168.539zM1064.858 154.707c63.84 76.608 94.484 153.217 94.484 232.379 0 33.197-5.107 61.287-12.768 86.823-45.965-35.751-99.591-53.626-155.771-53.626-76.608 0-140.449 22.983-191.521 71.501-53.626 45.965-79.162 109.805-79.162 188.968 0 48.519 12.768 94.484 38.304 132.788 25.536 40.858 58.733 71.501 99.591 94.484 38.304 20.429 84.269 30.643 130.234 30.643 109.805 0 191.521-43.411 250.254-130.234 48.519-71.501 71.501-160.878 71.501-268.13 0-135.342-35.751-257.915-107.252-367.721-71.501-107.252-181.307-194.075-326.863-260.469l-38.304 74.055c86.823 35.751 163.431 91.93 227.272 168.539z" />
<glyph unicode="&#xe909;" glyph-name="COMNETARIOS" d="M673.503 395.741h-323.007c-20.617 0-34.362-13.745-34.362-34.362s13.745-34.362 34.362-34.362h316.134c20.617 0 34.362 13.745 34.362 34.362s-13.745 34.362-27.49 34.362zM735.356 588.17h-446.711c-20.617 0-34.362-13.745-34.362-34.362 0-13.745 13.745-27.49 34.362-27.49h446.711c20.617 0 34.362 13.745 34.362 34.362-6.872 13.745-20.617 27.49-34.362 27.49zM508.564 938.667c-281.772 0-508.564-199.302-508.564-446.711 0-144.322 75.597-268.027 192.43-350.497v-226.792l226.792 137.45c27.49-6.872 61.852-6.872 89.342-6.872 281.772 0 508.564 199.302 508.564 446.711 6.872 247.409-226.792 446.711-508.564 446.711zM508.564 107.097c-34.362 0-75.597 6.872-109.96 13.745l-151.195-89.342v151.195c-116.832 68.725-192.43 185.557-192.43 316.134 0 213.047 199.302 384.859 446.711 384.859s446.711-171.812 446.711-384.859c6.872-219.919-192.43-391.732-439.839-391.732z" />
<glyph unicode="&#xe90a;" glyph-name="COMPRATIR" horiz-adv-x="1540" d="M79.38-85.333h-15.876c-39.69 7.938-63.504 39.69-63.504 79.38 0 508.031 555.659 642.977 746.171 674.729v190.512c0 31.752 15.876 55.566 39.69 63.504 23.814 15.876 55.566 7.938 79.38-7.938l642.977-420.713c23.814-15.876 31.752-39.69 31.752-63.504s-15.876-47.628-31.752-63.504l-642.977-436.589c-23.814-15.876-55.566-15.876-79.38-7.938-23.814 15.876-39.69 39.69-39.69 71.442v206.388c-79.38 0-150.822-7.938-206.388-15.876-309.581-39.69-388.961-214.326-396.899-222.264-7.938-23.814-39.69-47.628-63.504-47.628zM833.488 287.752v-269.891l611.225 412.775-611.225 404.837v-246.078l-39.69-7.938c-111.132-15.876-658.853-111.132-706.481-539.783 47.628 71.442 174.636 198.45 436.589 230.202 71.442 7.938 158.76 15.876 261.953 15.876h47.628z" />
<glyph unicode="&#xe90b;" glyph-name="EMAIL" horiz-adv-x="1346" d="M1185.137 938.667h-1018.802c-93.563 0-166.335-72.772-166.335-166.335v-696.528c0-88.365 72.772-166.335 166.335-166.335h1018.802c88.365 0 166.335 72.772 166.335 166.335v696.528c-5.198 93.563-77.97 166.335-166.335 166.335zM1273.503 75.804c0-46.782-41.584-88.365-88.365-88.365h-1018.802c-46.782 0-88.365 41.584-88.365 88.365v696.528c0 51.98 41.584 88.365 88.365 88.365h1018.802c46.782 0 88.365-41.584 88.365-88.365v-696.528zM852.467 434.464l327.472 296.284c15.594 15.594 15.594 36.386 0 51.98s-36.386 15.594-51.98 5.198l-452.223-410.64-88.365 77.97c0 0 0 0 0 0s-5.198 5.198-5.198 5.198l-363.858 327.472c-15.594 10.396-41.584 10.396-51.98-5.198-15.594-15.594-15.594-36.386 0-51.98l332.67-296.284-332.67-311.878c-15.594-15.594-15.594-36.386 0-51.98 10.396-10.396 20.792-15.594 31.188-15.594s20.792 5.198 25.99 10.396l337.868 317.076 93.563-83.168c5.198-5.198 15.594-10.396 25.99-10.396s15.594 5.198 25.99 10.396l93.563 83.168 332.67-317.076c5.198-5.198 15.594-10.396 25.99-10.396s20.792 5.198 25.99 10.396c15.594 15.594 15.594 41.584 0 51.98l-332.67 317.076z" />
<glyph unicode="&#xe90c;" glyph-name="ENVIADO" horiz-adv-x="2021" d="M807.752-85.333h1011.28c112.894 0 203.528 90.634 203.528 203.528v616.944c0 112.894-90.634 203.528-203.528 203.528h-1011.28c-112.894 0-203.528-90.634-203.528-203.528v-616.944c-1.59-112.894 90.634-203.528 203.528-203.528zM677.366 735.139c0 71.553 57.242 128.795 128.795 128.795h1011.28c71.553 0 128.795-57.242 128.795-128.795v-616.944c0-71.553-57.242-128.795-128.795-128.795h-1009.689c-71.553 0-128.795 57.242-128.795 128.795v616.944h-1.59zM807.752 116.605c7.95-7.95 17.491-12.72 28.621-12.72 7.95 0 17.491 3.18 25.441 9.54l322.783 284.621 104.944-81.093c6.36-4.77 14.311-7.95 23.851-7.95s15.901 3.18 23.851 7.95l108.124 84.273 319.602-287.801c6.36-6.36 15.901-9.54 25.441-9.54s20.671 4.77 28.621 12.72c14.311 15.901 12.72 39.752-3.18 52.472l-311.652 278.261 308.472 238.509c15.901 12.72 19.081 36.571 6.36 52.472s-36.571 19.081-52.472 6.36l-454.758-351.404-106.534 82.683-345.043 268.72c-15.901 12.72-39.752 9.54-52.472-6.36s-9.54-39.752 6.36-52.472l311.652-241.689-313.242-275.081c-15.901-14.311-17.491-38.161-4.77-52.472zM484.969 388.506c20.671 0 38.161 17.491 38.161 38.161s-17.491 38.161-38.161 38.161h-297.342c-20.671 0-38.161-17.491-38.161-38.161s17.491-38.161 38.161-38.161h297.342zM38.161 585.673h448.398c20.671 0 38.161 17.491 38.161 38.161s-17.491 38.161-38.161 38.161h-448.398c-20.671 0-38.161-17.491-38.161-38.161s17.491-38.161 38.161-38.161zM523.13 227.909c0 20.671-17.491 38.161-38.161 38.161h-195.578c-20.671 0-38.161-17.491-38.161-38.161s17.491-38.161 38.161-38.161h195.578c20.671 1.59 38.161 17.491 38.161 38.161z" />
<glyph unicode="&#xe90d;" glyph-name="ERROR" horiz-adv-x="1154" d="M1142.2 53.371l-484.862 839.463c-36.184 61.512-124.231 61.512-160.415 0l-484.862-839.463c-36.184-61.512 8.443-138.704 80.81-138.704h968.518c71.161 0 115.788 77.192 80.81 138.704zM1061.39-0.904h-968.518c-6.031 0-9.649 6.031-7.237 12.061l484.862 838.257c2.412 4.824 10.855 4.824 13.267 0l484.862-839.463c2.412-4.824-1.206-10.855-7.237-10.855zM577.734 586.479c-22.916 0-42.214-19.298-42.214-42.214v-243.637c0-22.916 19.298-42.214 42.214-42.214s42.214 19.298 42.214 42.214v243.637c0 22.916-19.298 42.214-42.214 42.214zM577.734 202.931c-22.916 0-42.214-19.298-42.214-42.214v-25.329c0-22.916 19.298-42.214 42.214-42.214s42.214 19.298 42.214 42.214v25.329c0 24.122-19.298 42.214-42.214 42.214z" />
<glyph unicode="&#xe90e;" glyph-name="FACEBOOK" horiz-adv-x="569" d="M521.481 374.519l23.704 184.889h-180.148v118.519c0 52.148 14.222 90.074 90.074 90.074h99.556v161.185c-18.963 0-75.852 9.481-142.222 9.481-142.222 0-237.037-85.333-237.037-246.519v-132.741h-161.185v-184.889h161.185v-474.074h189.63v474.074h156.444z" />
<glyph unicode="&#xe90f;" glyph-name="FLECHA1" horiz-adv-x="597" d="M508.609-85.333c20.344 0 47.47 6.781 61.033 27.126 33.907 33.907 33.907 88.159 0 122.066l-352.636 366.199 359.417 359.417c33.907 33.907 33.907 88.159 0 122.066s-88.159 33.907-122.066 0l-427.232-420.45c-33.907-33.907-33.907-88.159 0-122.066l420.45-420.45c20.344-20.344 40.689-33.907 61.033-33.907z" />
<glyph unicode="&#xe910;" glyph-name="FLECHA2" horiz-adv-x="597" d="M88.159-85.333c-20.344 0-47.47 6.781-61.033 27.126-33.907 33.907-33.907 88.159 0 122.066l359.417 359.417-359.417 366.199c-33.907 33.907-33.907 88.159 0 122.066s88.159 33.907 122.066 0l420.45-420.45c40.689-33.907 40.689-88.159 6.781-128.848l-420.45-420.45c-20.344-13.563-47.47-27.126-67.815-27.126z" />
<glyph unicode="&#xe911;" glyph-name="FLECHA3" horiz-adv-x="1757" d="M1757.091 65.94c0-34.909-11.636-81.455-46.545-104.727-58.182-58.182-151.273-58.182-209.455 0l-628.364 605.091-616.727-616.727c-58.182-58.182-151.273-58.182-209.455 0s-58.182 151.273 0 209.455l721.455 721.455c58.182 58.182 151.273 58.182 209.455 0l721.455-721.455c34.909-23.273 58.182-58.182 58.182-93.091z" />
<glyph unicode="&#xe912;" glyph-name="FLECHA4" horiz-adv-x="1757" d="M1757.091 787.394c0 34.909-11.636 81.455-46.545 104.727-58.182 58.182-151.273 58.182-209.455 0l-628.364-616.727-616.727 616.727c-58.182 58.182-151.273 58.182-209.455 0s-58.182-151.273 0-209.455l721.455-721.455c58.182-69.818 151.273-69.818 221.091-11.636l721.455 721.455c23.273 34.909 46.545 81.455 46.545 116.364z" />
<glyph unicode="&#xe913;" glyph-name="LIKE" horiz-adv-x="1171" d="M1073.096 840.475c-63.123 63.123-140.274 98.192-231.452 98.192-84.164 0-168.329-35.068-231.452-98.192l-28.055-28.055-28.055 28.055c-63.123 63.123-140.274 98.192-231.452 98.192-84.164 0-168.329-35.068-224.438-98.192-126.247-126.247-126.247-336.658 0-462.904l455.89-455.89c7.014-7.014 14.027-14.027 28.055-14.027 0 0 7.014 0 7.014 0 14.027 0 28.055 7.014 35.068 14.027l455.89 455.89c126.247 133.26 126.247 336.658-7.014 462.904zM1002.959 454.722l-420.822-420.822-420.822 420.822c-84.164 84.164-84.164 231.452 0 315.616 49.096 42.082 105.205 70.137 161.315 70.137 63.123 0 119.233-21.041 161.315-63.123l63.123-63.123c21.041-21.041 49.096-21.041 70.137 0l63.123 63.123c42.082 42.082 98.192 63.123 161.315 63.123s119.233-21.041 161.315-63.123c91.178-91.178 91.178-238.466 0-322.63z" />
<glyph unicode="&#xe914;" glyph-name="LINKEDIN" horiz-adv-x="1012" d="M17.554 599.284h210.651v-684.617h-210.651v684.617zM122.88 938.667c70.217 0 122.88-52.663 122.88-122.88s-52.663-122.88-122.88-122.88c-70.217 0-122.88 52.663-122.88 122.88s52.663 122.88 122.88 122.88zM362.789 599.284h204.8v-93.623c29.257 52.663 99.474 111.177 198.949 111.177 216.503 0 257.463-140.434 257.463-327.68v-374.491h-210.651v333.531c0 81.92 0 181.394-111.177 181.394s-128.731-87.771-128.731-175.543v-339.383h-210.651v684.617z" />
<glyph unicode="&#xe915;" glyph-name="LUPA" horiz-adv-x="995" d="M975.698 1.61l-241.509 251.17c67.623 77.283 96.604 164.226 96.604 270.491 0 231.849-183.547 415.396-415.396 415.396s-415.396-183.547-415.396-415.396c0-231.849 183.547-415.396 415.396-415.396 86.943 0 164.226 28.981 241.509 77.283l251.17-260.83c9.66-9.66 19.321-19.321 38.642-19.321 9.66 0 28.981 9.66 38.642 19.321 9.66 19.321 9.66 57.962-9.66 77.283zM415.396 832.403c173.887 0 309.132-135.245 309.132-309.132 0-164.226-144.906-309.132-309.132-309.132-173.887 0-309.132 144.906-309.132 309.132 0 173.887 135.245 309.132 309.132 309.132z" />
<glyph unicode="&#xe916;" glyph-name="MANOS" horiz-adv-x="1102" d="M1082.145 660.863l-258.423 258.423c-11.306 12.921-27.457 19.382-45.224 19.382-14.536 0-27.457-4.845-38.763-12.921l-6.461-3.23-332.719-45.224c-8.076 0-14.536-1.615-22.612-3.23l-11.306 11.306c0 0-1.615 1.615-1.615 1.615-11.306 9.691-27.457 16.151-41.994 16.151-17.767 0-33.918-6.461-46.839-19.382l-258.423-258.423c-22.612-22.612-25.842-59.76-4.845-85.603 0-1.615 1.615-1.615 1.615-3.23l111.445-122.751c3.23-14.536 8.076-30.688 14.536-46.839-27.457-32.303-25.842-80.757 4.845-111.445 0 0 0 0 0 0v0c14.536-14.536 35.533-24.227 56.53-24.227 0-3.23 0-6.461 0-9.691 0-22.612 8.076-41.994 24.227-58.145v0c0 0 0 0 0 0 16.151-16.151 35.533-24.227 58.145-24.227 3.23 0 4.845 0 8.076 0 0 0 0 0 0-1.615s0-1.615 0-3.23c0-22.612 8.076-41.994 24.227-58.145v0c0 0 0 0 0 0 16.151-16.151 35.533-24.227 58.145-24.227 0 0 0 0 0 0l8.076-8.076c1.615-20.997 9.691-40.379 24.227-54.915 0 0 0 0 0 0v0c14.536-14.536 33.918-22.612 54.915-24.227l20.997-20.997c17.767-17.767 41.994-27.457 66.221-27.457 29.073 0 56.53 12.921 74.297 35.533 9.691 12.921 16.151 25.842 17.767 41.994l12.921-12.921c17.767-17.767 43.609-29.073 67.836-29.073 20.997 0 41.994 6.461 58.145 19.382 17.767 14.536 30.688 33.918 33.918 56.53 17.767-14.536 40.379-22.612 62.991-22.612 20.997 0 41.994 6.461 58.145 19.382 20.997 16.151 33.918 41.994 35.533 67.836 1.615 24.227-6.461 50.069-22.612 67.836 14.536 3.23 29.073 9.691 41.994 17.767 20.997 16.151 33.918 41.994 35.533 67.836 1.615 27.457-8.076 53.3-27.457 72.681l-35.533 35.533c1.615 1.615 3.23 3.23 3.23 3.23 66.221 83.987 100.139 145.363 113.060 200.278 1.615 1.615 1.615 3.23 3.23 4.845l6.461 17.767c19.382 27.457 14.536 59.76-6.461 80.757zM205.123 274.844c-9.691 0-19.382 3.23-27.457 11.306v0c-14.536 14.536-14.536 38.763 0 53.3l29.073 29.073c8.076 8.076 17.767 11.306 27.457 11.306s19.382-3.23 27.457-11.306v0c14.536-14.536 14.536-38.763 0-53.3l-29.073-29.073c-8.076-8.076-17.767-11.306-27.457-11.306zM311.722 192.471c-8.076-8.076-17.767-11.306-27.457-11.306s-19.382 3.23-27.457 11.306v0c-14.536 14.536-14.536 38.763 0 53.3l69.451 69.451c8.076 8.076 17.767 11.306 27.457 11.306s19.382-3.23 27.457-11.306v0c14.536-14.536 14.536-38.763 0-53.3l-69.451-69.451zM403.785 106.869c-8.076-8.076-17.767-11.306-27.457-11.306s-19.382 3.23-27.457 11.306v0c-14.536 14.536-14.536 38.763 0 53.3l45.224 45.224c8.076 8.076 17.767 11.306 27.457 11.306s19.382-3.23 27.457-11.306v0c14.536-14.536 14.536-38.763 0-53.3l-45.224-45.224zM466.776 8.345c-9.691 0-19.382 3.23-27.457 11.306v0c-14.536 14.536-14.536 38.763 0 53.3l20.997 20.997c8.076 8.076 17.767 11.306 27.457 11.306s19.382-3.23 27.457-11.306v0c14.536-14.536 14.536-38.763 0-53.3l-20.997-20.997c-8.076-8.076-17.767-11.306-27.457-11.306zM591.142-22.342c-9.691-12.921-24.227-19.382-38.763-19.382-12.921 0-25.842 4.845-35.533 14.536l-3.23 3.23c4.845 3.23 8.076 6.461 12.921 9.691l20.997 20.997c14.536 14.536 22.612 33.918 24.227 51.685l16.151-16.151c16.151-14.536 17.767-43.609 3.23-64.606zM969.085 287.765c20.997-20.997 19.382-54.915-4.845-74.297-8.076-6.461-19.382-9.691-30.688-9.691-12.921 0-27.457 4.845-37.148 14.536l-179.281 179.281c-4.845 4.845-11.306 6.461-16.151 6.461-6.461 0-12.921-1.615-16.151-6.461v0c-9.691-9.691-9.691-24.227 0-33.918l230.965-230.965c20.997-20.997 19.382-54.915-4.845-74.297-8.076-6.461-19.382-9.691-30.688-9.691-12.921 0-27.457 4.845-37.148 14.536l-229.35 230.965c-4.845 4.845-11.306 6.461-17.767 6.461s-12.921-1.615-17.767-6.461c-9.691-9.691-9.691-24.227 0-33.918l180.896-180.896c20.997-20.997 19.382-54.915-4.845-74.297-8.076-6.461-19.382-9.691-30.688-9.691-12.921 0-27.457 4.845-37.148 14.536l-184.126 187.356c-3.23 14.536-11.306 29.073-22.612 40.379v0c-12.921 12.921-29.073 20.997-46.839 22.612 3.23 9.691 4.845 19.382 4.845 29.073 0 22.612-8.076 41.994-24.227 58.145 0 0 0 0 0 0v0c-16.151 16.151-35.533 24.227-58.145 24.227-14.536 0-29.073-3.23-40.379-11.306-3.23 14.536-11.306 27.457-20.997 38.763v0c0 0 0 0 0 0-16.151 16.151-35.533 24.227-58.145 24.227s-41.994-8.076-58.145-24.227v0c-3.23 9.691-4.845 17.767-6.461 25.842 0 3.23-1.615 6.461-3.23 8.076l-116.29 129.211c-6.461 8.076-4.845 19.382 1.615 27.457l258.423 258.423c4.845 4.845 9.691 6.461 14.536 6.461s9.691-1.615 12.921-4.845v0c-17.767-17.767-27.457-40.379-27.457-66.221 0-51.685 41.994-93.678 93.678-93.678l164.744-1.615 398.94-400.555zM1053.073 602.717l-8.076-22.612c-1.615-3.23-3.23-4.845-3.23-8.076-12.921-58.145-56.53-122.751-106.599-187.356-62.991 62.991-345.64 347.256-345.64 347.256l-185.741 1.615c-27.457 0-48.454 22.612-48.454 48.454 0 27.457 22.612 48.454 48.454 48.454l342.41 46.839c0 0 0 0 0 0l17.767 9.691c3.23 3.23 8.076 4.845 12.921 4.845s11.306-1.615 14.536-6.461l258.423-258.423c8.076-4.845 9.691-16.151 3.23-24.227z" />
<glyph unicode="&#xe917;" glyph-name="MAPA" d="M871.489 786.156c-94.411 101.674-225.135 152.511-363.121 152.511s-261.447-50.837-363.121-152.511c-94.411-94.411-145.248-225.135-145.248-355.858 0-137.986 50.837-261.447 152.511-363.121 94.411-94.411 225.135-152.511 363.121-152.511s261.447 50.837 363.121 152.511c94.411 94.411 152.511 225.135 152.511 363.121-7.262 130.723-65.362 261.447-159.773 355.858zM973.163 517.447h-196.085c0 72.624-14.525 116.199-29.050 188.823 36.312 21.787 72.624 58.099 101.674 87.149 72.624-72.624 116.199-203.348 123.461-275.972zM580.993 444.823h152.511c0-72.624 14.525-159.773-7.262-225.135-58.099 21.787-72.624 14.525-145.248 21.787v203.348zM813.39 778.894c-29.050-21.787-58.099-43.574-87.149-58.099-7.262 21.787-14.525 36.312-21.787 58.099-21.787 36.312-43.574 72.624-65.362 94.411 65.362-14.525 123.461-50.837 174.298-94.411zM580.993 887.83c0-7.262 72.624-58.099 108.936-123.461 7.262-21.787 21.787-43.574 36.312-65.362-50.837-21.787-72.624-36.312-145.248-36.312v225.135zM704.454 691.745c14.525-58.099 29.050-94.411 29.050-167.035h-152.511v94.411c72.624 0 94.411 36.312 145.248 50.837l-21.787 21.787zM486.582 517.447h-196.085c0 72.624 21.787 108.936 36.312 167.035 50.837-21.787 181.56-72.624 181.56-72.624v-94.411h-21.787zM508.369 887.83v-225.135c0 0-116.199 14.525-167.035 36.312 7.262 21.787 21.787 43.574 29.050 58.099 36.312 72.624 137.986 116.199 137.986 130.723zM384.908 873.305c-21.787-21.787-43.574-58.099-65.362-94.411-14.525-21.787-21.787-36.312-29.050-58.099-29.050 14.525-58.099 36.312-87.149 58.099 50.837 43.574 116.199 79.887 181.56 94.411v0zM174.298 778.894c29.050-29.050 65.362-36.312 101.674-58.099-21.787-65.362-29.050-130.723-29.050-203.348h-203.348c7.262 72.624 58.099 181.56 130.723 261.447zM43.574 444.823h196.085c0-72.624 14.525-174.298 36.312-246.922-36.312-21.787-72.624-29.050-101.674-58.099-72.624 79.887-123.461 232.397-130.723 305.021zM203.348 81.702c29.050 21.787 58.099 36.312 87.149 58.099 7.262-21.787 14.525-43.574 29.050-58.099 21.787-36.312 43.574-72.624 65.362-94.411-65.362 14.525-130.723 43.574-181.56 94.411v0zM493.844 9.078c-50.837 0-94.411 36.312-130.723 108.936-7.262 21.787-14.525 29.050-21.787 50.837 50.837 21.787 167.035 21.787 167.035 21.787v-181.56h-14.525zM319.546 219.688c-14.525 65.362-29.050 152.511-29.050 225.135h217.872v-210.61c0 0-123.461-7.262-181.56-29.050l-7.262 14.525zM580.993 9.078v181.56c72.624 0 79.887-14.525 130.723-36.312-7.262-21.787-29.050-21.787-36.312-36.312-36.312-72.624-79.887-108.936-123.461-108.936h29.050zM639.092-19.971c21.787 21.787 50.837 58.099 65.362 94.411 7.262 21.787 21.787 36.312 29.050 58.099 29.050-14.525 58.099-36.312 87.149-58.099-58.099-43.574-116.199-72.624-181.56-94.411v0zM871.489 110.752c0 29.050-79.887 72.624-116.199 94.411 21.787 65.362 21.787 174.298 21.787 246.922h196.085c-7.262-79.887-29.050-268.709-101.674-341.333v0z" />
<glyph unicode="&#xe918;" glyph-name="MENSAJE1" horiz-adv-x="1225" d="M1208.656 435.060l-92.328 92.328c-16.787 16.787-25.18 16.787-41.967 16.787s-25.18-8.393-33.574-16.787l-75.541-75.541-310.557-293.77c-8.393-8.393-8.393-16.787-8.393-16.787l-50.361-176.262c0-16.787 0-25.18 8.393-33.574s16.787-8.393 25.18-8.393c0 0 8.393 0 8.393 0l176.262 50.361c8.393 0 8.393 8.393 16.787 8.393l377.705 377.705c8.393 8.393 16.787 25.18 16.787 33.574 0 16.787 0 33.574-16.787 41.967zM788.984 32.175l-109.115-33.574 33.574 109.115 276.984 276.984 83.934-75.541-285.377-276.984zM1107.934 351.126l-83.934 75.541 41.967 41.967 75.541-75.541-33.574-41.967zM537.18 233.618c8.393-8.393-16.787 33.574 0 33.574v0c8.393 0 8.393-41.967 16.787-33.574l461.639 444.852v8.393h83.934v92.328c0 41.967-25.18 159.475-67.148 159.475h-990.426c-25.18 0-25.18-50.361-33.574-67.148-16.787-16.787 0-75.541 0-92.328v-788.984c0-16.787-16.787 8.393 0 0 8.393-16.787 8.393 25.18 33.574 25.18h553.967v83.934h-553.967c-8.393 0 50.361-109.115 50.361-109.115v688.262l444.852-444.852zM92.328 779.192c0 8.393-58.754 75.541-50.361 75.541h990.426c8.393 0-16.787-67.148-16.787-75.541v-8.393l-461.639-512-461.639 520.393z" />
<glyph unicode="&#xe919;" glyph-name="MENU" d="M513.668 938.667c-283.518 0-513.668-230.15-513.668-513.668s230.15-513.668 513.668-513.668 513.668 230.15 513.668 513.668c-3.336 283.518-233.485 513.668-513.668 513.668zM513.668-48.642c-263.505 0-476.977 213.472-476.977 476.977s213.472 473.642 476.977 473.642c263.505 0 476.977-213.472 476.977-476.977s-216.808-473.642-476.977-473.642zM733.811 645.143h-440.287c-10.007 0-20.013-6.671-20.013-16.678s6.671-16.678 16.678-16.678h443.622c10.007 0 16.678 6.671 16.678 16.678s-6.671 16.678-16.678 16.678zM733.811 445.012h-440.287c-10.007 0-16.678-6.671-16.678-16.678s6.671-16.678 16.678-16.678h440.287c10.007 0 16.678 6.671 16.678 16.678s-6.671 16.678-16.678 16.678zM733.811 241.546h-440.287c-10.007 0-16.678-6.671-16.678-16.678s6.671-16.678 16.678-16.678h440.287c10.007 0 16.678 6.671 16.678 16.678s-6.671 16.678-16.678 16.678z" />
<glyph unicode="&#xe91a;" glyph-name="PAVO" horiz-adv-x="1328" d="M1307.451 57.669h-20.429c0 0 0 0 0 0h-43.411v84.269c0 275.791-224.718 503.062-503.062 503.062h-48.519c-63.84 35.751-120.020 68.948-143.002 97.037l-40.858 48.519c0 0 0 0 0 0 17.875 15.322 28.090 33.197 28.090 56.18s-5.107 43.411-17.875 61.287-33.197 28.090-53.626 30.643c-22.983 2.554-43.411-5.107-61.287-17.875-20.429-15.322-30.643-38.304-30.643-63.84-2.554 0-5.107 0-7.661 0-22.983 2.554-43.411-5.107-61.287-17.875-17.875-15.322-28.090-33.197-28.090-56.18-2.554-22.983 5.107-43.411 17.875-61.287 28.090-35.751 81.716-40.858 114.913-10.214 0 0 0 0 0 0l40.858-48.519c5.107-5.107 7.661-10.214 12.768-17.875h-20.429c-51.072 0-102.145-15.322-145.556-40.858-10.214 5.107-20.429 10.214-28.090 15.322l-51.072 38.304c0 0 0 0 0 0 12.768 17.875 17.875 40.858 15.322 61.287 2.554 22.983-10.214 40.858-28.090 53.626s-38.304 17.875-61.287 15.322c-20.429-2.554-40.858-15.322-53.626-33.197-15.322-20.429-17.875-45.965-12.768-66.394-2.554 0-5.107 0-7.661 0-22.983-2.554-40.858-15.322-53.626-33.197s-17.875-40.858-15.322-61.287c2.554-22.983 15.322-40.858 33.197-53.626s40.858-17.875 61.287-15.322c22.983 2.554 40.858 15.322 53.626 33.197 0 0 0 0 0 0l51.072-38.304c2.554-2.554 7.661-5.107 10.214-10.214-22.983-40.858-35.751-89.377-35.751-135.342 0-137.895 79.162-257.915 194.075-316.648h-86.823c0 0 0 0 0 0h-20.429c-10.214 0-20.429-7.661-20.429-20.429 0-10.214 7.661-20.429 20.429-20.429h7.661l20.429-53.626c12.768-30.643 43.411-51.072 76.608-51.072h837.586c33.197 0 63.84 20.429 76.608 51.072l20.429 53.626h7.661c10.214 0 20.429 7.661 20.429 20.429s-10.214 20.429-20.429 20.429zM510.723 645.001c-2.554 2.554-2.554 7.661-5.107 10.214l40.858 35.751c17.875-15.322 40.858-28.090 66.394-43.411h-102.145zM429.007 757.36c-5.107 5.107-10.214 7.661-15.322 7.661s-12.768-5.107-15.322-10.214c-2.554-5.107-5.107-7.661-10.214-10.214-17.875-15.322-45.965-12.768-61.287 5.107-7.661 7.661-10.214 20.429-10.214 30.643 0 12.768 7.661 22.983 15.322 30.643s20.429 10.214 30.643 10.214c12.768 0 22.983-7.661 30.643-15.322s20.429-10.214 28.090-2.554c5.107 5.107 7.661 10.214 7.661 15.322s-2.554 7.661-5.107 12.768c-15.322 17.875-12.768 45.965 5.107 61.287 7.661 7.661 20.429 10.214 30.643 10.214 12.768 0 22.983-7.661 30.643-15.322s10.214-20.429 10.214-30.643c0-12.768-7.661-22.983-15.322-30.643-2.554-2.554-7.661-5.107-12.768-7.661-7.661-5.107-12.768-10.214-12.768-15.322-2.554-5.107 0-12.768 5.107-17.875l56.18-66.394c0 0 0 0 0 0l-35.751-30.643c0 0 0 0 0 0l-56.18 68.948zM255.362 524.981l30.643 43.411c43.411-20.429 99.591-35.751 160.878-51.072 89.377-22.983 181.307-48.519 232.379-86.823 66.394-48.519 81.716-140.449 33.197-206.843-22.983-33.197-58.733-53.626-97.037-58.733s-79.162 2.554-109.805 25.536c-51.072 38.304-104.698 117.466-153.217 194.075-33.197 53.626-66.394 104.698-97.037 140.449zM153.217 604.143c-2.554 2.554-7.661 2.554-10.214 2.554s-5.107 0-5.107 0c-5.107-2.554-10.214-7.661-12.768-12.768s-2.554-10.214-5.107-12.768c-7.661-10.214-17.875-15.322-28.090-17.875s-22.983 0-33.197 7.661c-10.214 7.661-15.322 17.875-17.875 28.090s0 22.983 7.661 33.197c7.661 10.214 17.875 15.322 28.090 17.875s22.983 0 33.197-7.661c7.661-5.107 20.429-5.107 28.090 5.107 2.554 2.554 2.554 7.661 2.554 10.214 0 5.107-2.554 12.768-7.661 15.322-20.429 12.768-25.536 40.858-12.768 58.733 7.661 10.214 17.875 15.322 30.643 17.875 10.214 2.554 22.983 0 33.197-7.661 7.661-7.661 12.768-17.875 15.322-28.090s0-22.983-7.661-33.197c-2.554-2.554-5.107-7.661-10.214-10.214s-7.661-10.214-7.661-15.322c0-5.107 2.554-12.768 7.661-15.322l71.501-51.072c0 0 0 0 0 0l-25.536-35.751c0 0 0 0 0 0l-74.055 51.072zM214.504 374.318c0 38.304 7.661 74.055 25.536 107.252 25.536-30.643 51.072-71.501 79.162-114.913 51.072-81.716 107.252-163.431 163.431-206.843 33.197-22.983 71.501-35.751 109.805-35.751 10.214 0 20.429 0 30.643 2.554 48.519 7.661 91.93 35.751 122.574 74.055 61.287 84.269 40.858 201.736-40.858 260.469-58.733 40.858-153.217 66.394-245.147 91.93-38.304 10.214-74.055 20.429-107.252 30.643 30.643 12.768 63.84 20.429 97.037 20.429h51.072c0 0 0 0 0 0s0 0 0 0h240.040c255.362 0 462.204-206.843 462.204-462.204v-84.269h-671.601c-173.646 0-316.648 143.002-316.648 316.648zM1243.611-18.939c-7.661-15.322-22.983-28.090-40.858-28.090h-837.586c-17.875 0-33.197 10.214-40.858 28.090l-15.322 38.304h949.945l-15.322-38.304zM646.065 272.173c-2.554-5.107-5.107-7.661-10.214-10.214-7.661-7.661-7.661-20.429-2.554-28.090 5.107-5.107 10.214-7.661 15.322-7.661s10.214 2.554 12.768 5.107c5.107 5.107 10.214 10.214 15.322 17.875 12.768 17.875 20.429 38.304 20.429 61.287 0 10.214-7.661 20.429-20.429 20.429v0c-10.214 0-20.429-7.661-20.429-20.429 2.554-12.768-2.554-25.536-10.214-38.304zM485.187 420.283c53.626-15.322 117.466-33.197 148.11-56.18 2.554-2.554 7.661-2.554 10.214-2.554 5.107 0 12.768 2.554 15.322 7.661 5.107 7.661 5.107 20.429-5.107 28.090-35.751 25.536-102.145 45.965-160.878 63.84-10.214 2.554-20.429-2.554-22.983-12.768-2.554-15.322 5.107-25.536 15.322-28.090zM829.925 550.517c-28.090 5.107-58.733 10.214-86.823 10.214-10.214 0-20.429-7.661-20.429-20.429 0-10.214 7.661-20.429 20.429-20.429 28.090 0 53.626-2.554 79.162-7.661 2.554 0 2.554 0 5.107 0 10.214 0 17.875 5.107 17.875 15.322 2.554 12.768-5.107 22.983-15.322 22.983zM916.748 522.428c-10.214 5.107-20.429 0-25.536-10.214s0-20.429 10.214-25.536c74.055-33.197 135.342-91.93 173.646-163.431 2.554-7.661 10.214-10.214 17.875-10.214 2.554 0 5.107 0 10.214 2.554 10.214 5.107 12.768 17.875 7.661 25.536-43.411 79.162-112.359 143.002-194.075 181.307z" />
<glyph unicode="&#xe91b;" glyph-name="PIN" horiz-adv-x="796" d="M398.008-85.333c-7.728 0-15.457 3.864-23.185 7.728-11.592 19.321-374.823 405.736-374.823 618.264 0 220.257 177.751 398.008 398.008 398.008s398.008-177.751 398.008-398.008c0-212.528-363.23-598.943-378.687-614.4-3.864-7.728-11.592-11.592-19.321-11.592zM398.008 880.705c-189.343 0-340.045-154.566-340.045-340.045 0-146.838 227.985-428.921 340.045-552.574 112.060 123.653 340.045 405.736 340.045 552.574 0 185.479-150.702 340.045-340.045 340.045zM398.008 413.142c-92.74 0-170.023 77.283-170.023 170.023s77.283 170.023 170.023 170.023c92.74 0 170.023-77.283 170.023-170.023s-77.283-170.023-170.023-170.023zM398.008 695.225c-61.826 0-112.060-50.234-112.060-112.060s50.234-112.060 112.060-112.060c61.826 0 112.060 50.234 112.060 112.060s-50.234 112.060-112.060 112.060z" />
<glyph unicode="&#xe91c;" glyph-name="POLLO" horiz-adv-x="1297" d="M1276.141 123.069h-128.643c7.719 33.447 10.291 69.467 10.291 102.915 0 149.226-64.322 290.734-177.528 388.503l69.467 108.060 51.457 12.864c18.010 5.146 30.874 15.437 41.166 28.302 10.291 15.437 12.864 33.447 7.719 48.884-7.719 30.874-33.447 51.457-64.322 51.457-5.146 0-10.291 0-15.437-2.573l-28.302-5.146-2.573 30.874c-7.719 30.874-33.447 51.457-64.322 51.457-5.146 0-10.291 0-15.437-2.573-36.020-7.719-56.603-43.739-48.884-79.759l12.864-51.457-69.467-108.060c-64.322 28.302-133.789 43.739-203.256 43.739-208.402 0-385.93-123.497-465.688-301.025 0-2.573-2.573-2.573-2.573-5.146-28.302-61.749-43.739-131.216-43.739-205.829 0-36.020 2.573-69.467 10.291-102.915h-128.643c-10.291-2.573-20.583-10.291-20.583-23.156 0-10.291 10.291-20.583 20.583-20.583h38.593c12.864-30.874 51.457-95.196 154.372-141.508 0-2.573 0-2.573 0-5.146 0-10.291 10.291-20.583 20.583-20.583h769.286c0 0 61.749 0 61.749 0 10.291 0 20.583 10.291 20.583 20.583 0 2.573 0 2.573 0 5.146 102.915 43.739 141.508 110.633 154.372 141.508h38.593c10.291 0 20.583 10.291 20.583 20.583-2.573 12.864-10.291 20.583-23.156 20.583zM1000.844-44.167h-702.392c-72.040 18.010-131.216 48.884-167.236 92.623-10.291 12.864-18.010 23.156-23.156 33.447h1085.749c-20.583-33.447-72.040-95.196-192.965-126.070zM177.528 228.556c0 61.749 12.864 123.497 33.447 177.528 18.010-2.573 28.302-10.291 41.166-20.583 10.291-7.719 23.156-15.437 38.593-20.583 2.573 0 5.146 0 7.719 0 7.719 0 15.437 5.146 20.583 12.864 0 0 0 2.573 0 2.573 2.573 10.291-2.573 20.583-12.864 23.156-10.291 5.146-20.583 10.291-30.874 15.437-12.864 7.719-25.729 18.010-46.312 23.156 77.186 151.799 236.704 254.714 416.804 254.714 51.457 0 100.342-7.719 146.653-23.156-72.040-23.156-190.392-66.894-239.276-146.653-15.437-25.729-28.302-54.030-33.447-82.332-10.291 2.573-18.010 2.573-28.302 2.573-43.739 0-66.894-15.437-87.477-28.302-10.291-5.146-18.010-12.864-30.874-15.437-10.291-2.573-15.437-12.864-12.864-23.156 0 0 0-2.573 0-2.573 2.573-7.719 10.291-12.864 20.583-12.864 2.573 0 5.146 0 7.719 0 15.437 5.146 28.302 12.864 38.593 20.583 18.010 12.864 33.447 20.583 64.322 20.583 10.291 0 18.010 0 25.729-2.573 0-79.759 38.593-156.945 110.633-203.256 38.593-23.156 82.332-36.020 126.070-36.020 82.332 0 156.945 41.166 200.683 110.633 15.437 23.156 25.729 54.030 30.874 84.905 23.156 5.146 38.593 15.437 54.030 25.729 12.864 7.719 25.729 15.437 41.166 20.583 23.156-56.603 33.447-115.779 33.447-177.528 0-36.020-5.146-69.467-10.291-102.915h-913.367c-7.719 33.447-12.864 66.894-12.864 102.915zM998.271 876.918l10.291-48.884c2.573-10.291 12.864-18.010 25.729-15.437l46.312 12.864c2.573 0 2.573 0 5.146 0 10.291 0 20.583-7.719 23.156-18.010 2.573-5.146 0-12.864-2.573-18.010s-7.719-10.291-15.437-10.291l-59.176-12.864c-5.146 0-10.291-5.146-12.864-10.291l-82.332-131.216v-2.573c0 0 0 0 0 0s0 0 0 0 0 0 0-2.573c0 0 0 0 0 0-2.573-5.146-2.573-7.719 0-12.864 0-2.573 30.874-120.925 18.010-223.839 0 0 0-2.573 0-5.146-5.146-30.874-12.864-59.176-25.729-79.759-36.020-56.603-97.769-92.623-164.663-92.623-36.020 0-72.040 10.291-102.915 30.874-92.623 56.603-118.352 177.528-61.749 270.151 61.749 97.769 270.151 141.508 272.724 144.080 0 0 0 0 0 0s0 0 0 0 0 0 0 0 0 0 0 0 0 0 0 0 0 0 0 0 0 0 0 0 0 0 0 0 0 0 0 0 0 0 0 0 0 0 0 0 0 0 0 0 0 0 0 0 0 0 0 0 0 0 0 0 0 0 0 0 0 0 0 0v2.573l82.332 131.216c2.573 5.146 5.146 10.291 2.573 15.437l-12.864 59.176c-2.573 12.864 5.146 25.729 18.010 30.874 2.573 0 2.573 0 5.146 0 18.010 7.719 28.302 0 30.874-12.864zM1018.854 418.948c-7.719-5.146-15.437-10.291-25.729-15.437 2.573 54.030-2.573 108.060-7.719 149.226 33.447-33.447 59.176-72.040 79.759-110.633-18.010-5.146-33.447-12.864-46.312-23.156zM841.327 447.25c-12.864 0-23.156-10.291-23.156-23.156s10.291-23.156 23.156-23.156c12.864 0 23.156 10.291 23.156 23.156s-10.291 23.156-23.156 23.156zM758.995 529.582c-12.864 0-23.156-10.291-23.156-23.156s10.291-23.156 23.156-23.156c12.864 0 23.156 10.291 23.156 23.156s-10.291 23.156-23.156 23.156zM303.598 241.421c-12.864 0-23.156-10.291-23.156-23.156s10.291-23.156 23.156-23.156c12.864 0 23.156 10.291 23.156 23.156s-10.291 23.156-23.156 23.156z" />
<glyph unicode="&#xe91d;" glyph-name="PREPARADOS" d="M873.412 788.079c-95.829 98.567-224.513 150.588-361.412 150.588s-265.583-52.021-361.412-150.588c-98.567-95.829-150.588-224.513-150.588-361.412s52.021-265.583 150.588-361.412c95.829-95.829 224.513-150.588 361.412-150.588s265.583 52.021 361.412 150.588c95.829 95.829 150.588 224.513 150.588 361.412s-54.759 265.583-150.588 361.412zM851.508 87.159c-90.353-90.353-210.824-139.636-339.508-139.636s-249.155 49.283-339.508 139.636c-90.353 90.353-139.636 210.824-139.636 339.508s49.283 249.155 139.636 339.508c90.353 90.353 210.824 139.636 339.508 139.636s249.155-49.283 339.508-139.636c90.353-90.353 139.636-210.824 139.636-339.508s-49.283-249.155-139.636-339.508zM687.23 733.319c-2.738 27.38-24.642 46.545-52.021 46.545-13.69 0-24.642-5.476-32.856-10.952-30.118 8.214-60.235 10.952-90.353 10.952-120.471 0-229.989-60.235-295.701-161.54-21.904-5.476-38.332-27.38-38.332-49.283 0-8.214 2.738-13.69 2.738-19.166-13.69-38.332-21.904-79.401-21.904-120.471 0-27.38 2.738-52.021 8.214-76.663-5.476-8.214-8.214-19.166-8.214-27.38 0-21.904 16.428-43.807 35.594-49.283 24.642-54.759 62.973-98.567 106.781-131.422 10.952-19.166 27.38-35.594 52.021-43.807 10.952-2.738 24.642-5.476 38.332-5.476 0 0 0 0 0 0 38.332-13.69 79.401-21.904 120.471-21.904 0 0 2.738 0 2.738 0 2.738-5.476 8.214-10.952 13.69-16.428 0 0 0 0 0 0 8.214-5.476 16.428-8.214 27.38-8.214 2.738 0 8.214 0 10.952 2.738 13.69 2.738 24.642 13.69 30.118 24.642l5.476 8.214c153.326 41.070 262.845 180.706 262.845 342.246 0 125.947-68.449 243.679-177.968 306.652zM232.727 273.341c19.166 8.214 30.118 27.38 30.118 46.545 0 10.952-8.214 16.428-16.428 16.428s-16.428-8.214-16.428-16.428c0-10.952-8.214-19.166-19.166-19.166s-19.166 8.214-19.166 19.166c0 10.952 8.214 19.166 19.166 19.166 8.214 0 16.428 8.214 16.428 16.428s-8.214 16.428-16.428 16.428c-5.476 0-8.214 0-13.69-2.738-2.738 19.166-5.476 38.332-5.476 54.759 0 32.856 5.476 62.973 13.69 95.829 5.476-2.738 13.69-5.476 21.904-5.476s16.428 8.214 16.428 16.428c0 8.214-8.214 16.428-16.428 16.428-10.952 0-19.166 8.214-19.166 19.166s8.214 19.166 19.166 19.166c10.952 0 19.166-8.214 19.166-19.166 0-8.214 8.214-16.428 16.428-16.428s16.428 8.214 16.428 16.428c0 19.166-10.952 38.332-27.38 46.545 60.235 82.139 156.064 131.422 260.107 131.422 24.642 0 49.283-2.738 73.925-8.214 0-2.738 0-5.476 0-10.952 0-8.214 8.214-16.428 16.428-16.428s16.428 8.214 16.428 16.428c0 10.952 8.214 19.166 19.166 19.166s19.166-8.214 19.166-19.166c0-10.952-8.214-19.166-19.166-19.166-8.214 0-16.428-8.214-16.428-16.428s8.214-16.428 16.428-16.428c19.166 0 32.856 8.214 43.807 24.642 93.091-57.497 153.326-161.54 153.326-271.059 0-8.214 0-16.428 0-24.642-8.214 16.428-19.166 30.118-32.856 46.545-13.69 19.166-35.594 27.38-60.235 30.118-30.118 2.738-65.711-10.952-93.091-35.594-8.214 0-16.428-2.738-21.904-8.214 0 0 0 2.738 0 2.738l-24.642 73.925c-8.214 27.38-38.332 41.070-65.711 32.856s-41.070-38.332-32.856-65.711l24.642-73.925c2.738-8.214 5.476-13.69 13.69-19.166v0c2.738-2.738 5.476-5.476 8.214-8.214-2.738 0-8.214 0-10.952-2.738-32.856-10.952-62.973-16.428-93.091-19.166-38.332-5.476-76.663-10.952-112.257-35.594-38.332-27.38-52.021-65.711-43.807-117.733-24.642 21.904-43.807 43.807-57.497 71.187zM520.214 245.961c-2.738 13.69-8.214 24.642-13.69 35.594-5.476 16.428-13.69 38.332-13.69 49.283 16.428 2.738 32.856 8.214 49.283 13.69 0 0 0 0 0 0 2.738 0 8.214-2.738 13.69-13.69 5.476-8.214 8.214-16.428 5.476-19.166-13.69-19.166-27.38-43.807-41.070-65.711zM640.684 407.501c2.738 2.738 8.214 2.738 10.952 2.738s5.476 0 10.952-5.476c2.738-5.476 2.738-8.214 2.738-10.952s-2.738-5.476-8.214-8.214l-68.449-35.594c0 0 0 2.738-2.738 2.738 0 0 0 2.738-2.738 2.738l57.497 52.021zM577.711 404.763c-5.476-2.738-13.69 0-19.166 5.476-2.738 2.738-2.738 5.476-5.476 8.214l-24.642 73.925c-2.738 10.952 2.738 19.166 10.952 24.642 10.952 2.738 19.166-2.738 24.642-10.952l24.642-73.925c5.476-13.69 0-24.642-10.952-27.38zM635.209 182.988c-2.738-2.738-8.214 0-19.166 5.476-8.214 5.476-13.69 13.69-13.69 13.69 10.952 27.38 13.69 54.759 16.428 79.401 8.214-10.952 16.428-19.166 24.642-30.118 10.952-10.952 27.38-32.856 30.118-41.070-10.952-5.476-24.642-16.428-38.332-27.38zM706.396 229.533c-5.476 13.69-19.166 30.118-32.856 43.807-16.428 19.166-35.594 41.070-41.070 57.497l41.070 19.166c10.952 5.476 21.904 16.428 24.642 30.118s0 27.38-8.214 38.332c-2.738 2.738-2.738 5.476-5.476 5.476 16.428 10.952 38.332 16.428 54.759 16.428 13.69 0 27.38-5.476 35.594-16.428 54.759-68.449 43.807-104.043 27.38-128.684-19.166-30.118-46.545-43.807-79.401-62.973-8.214 2.738-13.69 0-16.428-2.738zM328.556 163.822c-27.38 82.139-5.476 112.257 19.166 128.684 27.38 19.166 60.235 24.642 98.567 30.118 5.476 0 10.952 2.738 16.428 2.738 0-16.428 8.214-35.594 16.428-54.759 10.952-27.38 21.904-60.235 16.428-76.663 0 0 0 0 0 0-10.952-19.166-24.642-32.856-41.070-46.545-24.642-16.428-60.235-24.642-87.615-13.69-16.428 2.738-32.856 10.952-38.332 30.118zM470.93 120.015c35.594 24.642 52.021 57.497 71.187 93.091 13.69 24.642 27.38 52.021 46.545 76.663-2.738-24.642-8.214-49.283-16.428-76.663-2.738-8.214-2.738-16.428 0-24.642l-54.759-60.235c-5.476-5.476-8.214-13.69-10.952-21.904-16.428 0-35.594 2.738-52.021 5.476 8.214 2.738 10.952 5.476 16.428 8.214zM558.545 84.421c-2.738 0-8.214 0-10.952 2.738 0 0 0 0 0 0-5.476 2.738-5.476 8.214-5.476 10.952s0 8.214 2.738 10.952l52.021 54.759c0 0 2.738 0 2.738-2.738 0 0 2.738 0 2.738-2.738l-35.594-68.449c0-2.738-5.476-5.476-8.214-5.476zM621.519 125.491l10.952 21.904c0 0 0 0 0 0 8.214 0 16.428 2.738 24.642 8.214 27.38 21.904 52.021 38.332 79.401 52.021 5.476 2.738 13.69 8.214 19.166 10.952-35.594-41.070-82.139-71.187-134.16-93.091zM512 640.228c8.214 0 16.428 8.214 16.428 16.428 0 10.952 8.214 19.166 19.166 19.166s19.166-8.214 19.166-19.166-8.214-19.166-19.166-19.166c-8.214 0-16.428-8.214-16.428-16.428s8.214-16.428 16.428-16.428c27.38 0 52.021 24.642 52.021 52.021s-24.642 52.021-52.021 52.021c-27.38 0-52.021-24.642-52.021-52.021 0-8.214 8.214-16.428 16.428-16.428zM334.032 374.646c38.332 0 68.449 30.118 68.449 68.449s-30.118 68.449-68.449 68.449c-38.332 0-68.449-30.118-68.449-68.449s30.118-68.449 68.449-68.449zM334.032 481.426c19.166 0 35.594-16.428 35.594-35.594s-16.428-35.594-35.594-35.594c-19.166 0-35.594 16.428-35.594 35.594s16.428 35.594 35.594 35.594zM670.802 497.854c38.332 0 68.449 30.118 68.449 68.449s-30.118 68.449-68.449 68.449c-38.332 0-68.449-30.118-68.449-68.449 0-35.594 30.118-68.449 68.449-68.449zM670.802 604.635c19.166 0 35.594-16.428 35.594-35.594s-16.428-35.594-35.594-35.594c-19.166 0-35.594 16.428-35.594 35.594s16.428 35.594 35.594 35.594zM328.556 574.517l71.187-35.594c8.214-2.738 16.428-5.476 21.904-5.476 19.166 0 38.332 10.952 46.545 27.38 13.69 24.642 2.738 57.497-21.904 68.449l-71.187 35.594c-24.642 13.69-57.497 2.738-68.449-21.904-13.69-24.642-2.738-54.759 21.904-68.449zM336.77 629.277c2.738 5.476 5.476 8.214 10.952 8.214 2.738 0 2.738 0 5.476 0s5.476 0 8.214-2.738l71.187-35.594c8.214-5.476 13.69-16.428 8.214-24.642-2.738-5.476-10.952-10.952-16.428-10.952-2.738 0-5.476 0-8.214 2.738l-71.187 35.594c-10.952 8.214-13.69 19.166-8.214 27.38zM451.765 437.619c-5.476 5.476-16.428 5.476-24.642 0-5.476-5.476-5.476-16.428 0-24.642l16.428-16.428c2.738-2.738 8.214-5.476 10.952-5.476 5.476 0 8.214 2.738 10.952 5.476 5.476 5.476 5.476 16.428 0 24.642l-13.69 16.428zM446.289 508.806l-16.428-16.428c-5.476-5.476-5.476-16.428 0-24.642 2.738-2.738 8.214-5.476 10.952-5.476 5.476 0 8.214 2.738 10.952 5.476l16.428 16.428c5.476 5.476 5.476 16.428 0 24.642-2.738 8.214-13.69 8.214-21.904 0zM429.861 662.132c2.738-2.738 8.214-5.476 10.952-5.476 5.476 0 8.214 2.738 10.952 5.476 5.476 5.476 5.476 16.428 0 24.642l-16.428 16.428c-5.476 5.476-16.428 5.476-24.642 0-5.476-5.476-5.476-16.428 0-24.642l19.166-16.428zM758.417 497.854c5.476 0 8.214 2.738 10.952 5.476l16.428 16.428c5.476 5.476 5.476 16.428 0 24.642-5.476 5.476-16.428 5.476-24.642 0l-13.69-16.428c-5.476-5.476-5.476-16.428 0-24.642 2.738-2.738 8.214-5.476 10.952-5.476zM229.989 462.261c-8.214 0-16.428-8.214-16.428-16.428v-16.428c0-8.214 8.214-16.428 16.428-16.428 8.214-2.738 16.428 5.476 16.428 13.69v16.428c0 10.952-8.214 19.166-16.428 19.166z" />
<glyph unicode="&#xe91e;" glyph-name="TELEFONO" horiz-adv-x="1031" d="M1003.102 165.443l-146.286 146.286c-20.898 20.898-48.762 27.864-76.626 27.864s-55.728-13.932-76.626-34.83l-62.694-48.762c-48.762 27.864-104.49 62.694-167.184 125.388s-97.524 118.422-125.388 167.184l55.728 55.728c41.796 41.796 41.796 111.456 0 153.252l-139.32 153.252c-20.898 13.932-48.762 27.864-76.626 27.864s-55.728-13.932-76.626-34.83c-13.932-6.966-76.626-69.66-97.524-181.116-34.83-160.218 41.796-320.435 264.707-543.347 250.776-250.776 459.755-264.707 522.449-264.707 13.932 0 20.898 0 20.898 0 118.422 13.932 160.218 62.694 188.082 104.49s27.864 111.456-6.966 146.286zM954.34 53.987c-27.864-34.83-55.728-69.66-146.286-76.626 0 0-6.966 0-13.932 0-55.728 0-243.81 20.898-473.687 250.776-202.014 202.014-278.639 348.299-250.776 487.619 20.898 104.49 76.626 146.286 76.626 146.286v0 0c13.932 6.966 27.864 13.932 41.796 13.932 6.966 0 20.898-6.966 27.864-13.932l146.286-146.286c13.932-13.932 13.932-48.762 0-62.694l-62.694-69.66c-20.898-20.898-20.898-48.762-6.966-62.694 27.864-48.762 62.694-118.422 139.32-188.082 69.66-69.66 139.32-111.456 188.082-139.32 6.966 0 13.932-6.966 27.864-6.966s27.864 6.966 41.796 20.898l62.694 62.694c6.966 6.966 20.898 13.932 34.83 13.932s20.898-6.966 27.864-13.932l146.286-146.286c13.932-20.898 6.966-48.762-6.966-69.66zM626.939 785.415c55.728-6.966 118.422-41.796 167.184-83.592 48.762-48.762 76.626-111.456 83.592-167.184 0-13.932 13.932-27.864 34.83-27.864 0 0 0 0 0 0 20.898 0 27.864 20.898 27.864 34.83-6.966 69.66-48.762 146.286-104.49 202.014s-132.354 90.558-202.014 104.49c-20.898 0-34.83-13.932-34.83-27.864-6.966-20.898 6.966-34.83 27.864-34.83zM592.109 646.096c27.864 0 69.66-27.864 97.524-55.728s48.762-69.66 55.728-97.524c0-13.932 13.932-27.864 34.83-27.864 0 0 0 0 6.966 0 20.898 0 27.864 20.898 27.864 34.83-6.966 48.762-41.796 104.49-69.66 139.32-27.864 27.864-83.592 62.694-132.354 69.66-20.898 0-34.83-13.932-34.83-27.864-13.932-13.932 0-27.864 13.932-34.83z" />
<glyph unicode="&#xe91f;" glyph-name="TELEFONO1" d="M811.472 304.946c-19.321 23.185-46.37 34.777-73.419 34.777s-54.098-11.592-73.419-34.777l-69.555-69.555c-3.864 3.864-11.592 7.728-15.457 7.728-7.728 3.864-15.457 7.728-23.185 11.592-65.691 42.506-123.653 92.74-177.751 162.294-27.049 34.777-46.37 61.826-57.962 92.74 19.321 15.457 34.777 34.777 50.234 50.234 3.864 3.864 11.592 11.592 15.457 19.321 46.37 46.37 46.37 104.332 0 150.702l-57.962 57.962c-7.728 3.864-11.592 11.592-19.321 19.321-11.592 11.592-27.049 27.049-42.506 38.642-19.321 23.185-46.37 34.777-69.555 34.777s-54.098-11.592-73.419-34.777c0 0 0 0 0 0l-77.283-73.419c-27.049-27.049-42.506-61.826-46.37-100.468-3.864-61.826 11.592-123.653 27.049-162.294 34.777-92.74 88.875-181.615 166.158-274.355 96.604-112.060 208.664-200.936 340.045-266.626 50.234-23.185 115.925-50.234 189.343-57.962 3.864 0 7.728 0 15.457 0 50.234 0 92.74 19.321 123.653 54.098 0 0 0 0 0 0 11.592 15.457 23.185 27.049 38.642 38.642 7.728 7.728 19.321 19.321 27.049 27.049 23.185 23.185 30.913 46.37 30.913 73.419s-11.592 54.098-34.777 73.419l-112.060 127.517zM888.755 76.961c0 0 0-3.864 0 0-7.728-7.728-15.457-15.457-27.049-27.049-15.457-11.592-27.049-27.049-42.506-42.506-23.185-27.049-46.37-34.777-81.147-34.777-3.864 0-7.728 0-11.592 0-65.691 3.864-123.653 30.913-170.023 50.234-123.653 57.962-231.849 142.974-320.725 251.17-73.419 88.875-123.653 170.023-154.566 258.898-19.321 54.098-23.185 96.604-23.185 135.245 3.864 27.049 11.592 46.37 30.913 65.691l73.419 73.419c11.592 7.728 23.185 15.457 34.777 15.457 15.457 0 23.185-7.728 30.913-15.457 0 0 0 0 0 0 11.592-11.592 27.049-27.049 38.642-38.642 7.728-7.728 15.457-15.457 19.321-23.185l61.826-57.962c23.185-23.185 23.185-42.506 0-65.691-7.728-7.728-11.592-15.457-19.321-23.185-19.321-15.457-34.777-34.777-54.098-50.234 0 0 0 0 0 0-19.321-19.321-15.457-38.642-11.592-50.234 0 0 0 0 0-3.864 15.457-38.642 38.642-73.419 69.555-115.925v0c57.962-73.419 123.653-131.381 193.208-173.887 7.728-3.864 19.321-11.592 27.049-15.457s15.457-7.728 23.185-11.592c0 0 0 0 3.864 0 7.728-3.864 15.457-3.864 23.185-3.864 19.321 0 30.913 11.592 34.777 15.457l73.419 73.419c7.728 7.728 19.321 15.457 30.913 15.457s23.185-7.728 30.913-15.457c0 0 0 0 0 0l119.789-119.789c15.457-23.185 15.457-46.37-3.864-65.691zM552.574 695.225c57.962-7.728 108.196-34.777 150.702-77.283s69.555-92.74 77.283-150.702c3.864-15.457 15.457-23.185 27.049-23.185 0 0 3.864 0 3.864 0 15.457 3.864 27.049 19.321 23.185 34.777-11.592 69.555-42.506 131.381-92.74 181.615-46.37 46.37-108.196 81.147-177.751 92.74-15.457 3.864-30.913-7.728-34.777-23.185s7.728-30.913 23.185-34.777zM1024 486.561c-19.321 112.060-73.419 216.392-154.566 297.54s-185.479 135.245-297.54 154.566c-15.457 3.864-30.913-7.728-34.777-23.185s7.728-30.913 23.185-34.777c100.468-15.457 193.208-65.691 266.626-139.109s123.653-162.294 139.109-266.626c3.864-15.457 15.457-23.185 27.049-23.185 0 0 3.864 0 3.864 0 19.321 3.864 30.913 19.321 27.049 34.777z" />
<glyph unicode="&#xe920;" glyph-name="TIENDA" horiz-adv-x="1177" d="M835.502 378.269h-157.93c-45.851 0-81.512-35.662-81.512-81.512v-122.269c0-45.851 35.662-81.512 81.512-81.512h157.93c45.851 0 81.512 35.662 81.512 81.512v122.269c-5.095 45.851-35.662 81.512-81.512 81.512zM855.881 179.582c0-10.189-10.189-20.378-20.378-20.378h-157.93c-10.189 0-20.378 10.189-20.378 20.378v122.269c0 10.189 10.189 20.378 20.378 20.378h157.93c10.189 0 20.378-10.189 20.378-20.378v-122.269zM1176.836 602.428c0 5.095 0 10.189-5.095 15.284l-173.214 305.672c-5.095 10.189-15.284 15.284-25.473 15.284h-769.274c-10.189 0-20.378-5.095-25.473-15.284l-173.214-305.672c-5.095-5.095-5.095-10.189-5.095-15.284 0-71.323 40.756-127.363 101.891-152.836v-509.453c0-15.284 15.284-30.567 30.567-30.567h157.93c0 0 0 0 0 0h224.159c0 0 0 0 0 0h529.831c15.284 0 30.567 15.284 30.567 30.567v504.358c0 0 0 0 0 5.095 61.134 25.473 101.891 81.512 101.891 152.836zM219.065 882.627h733.612l137.552-239.443h-1008.716l137.552 239.443zM835.502 582.050c-10.189-50.945-56.040-91.701-106.985-91.701s-101.891 40.756-112.080 91.701h219.065zM555.303 582.050c-10.189-50.945-56.040-91.701-106.985-91.701-56.040 0-101.891 40.756-106.985 91.701h213.97zM61.134 582.050h219.065c-10.189-50.945-56.040-91.701-112.080-91.701s-101.891 40.756-106.985 91.701zM483.98-29.293h-163.025v310.766c0 20.378 20.378 40.756 40.756 40.756h81.512c20.378 0 40.756-20.378 40.756-40.756v-310.766zM1018.905-29.293h-473.791v310.766c0 56.040-45.851 96.796-96.796 96.796h-86.607c-56.040 0-96.796-45.851-96.796-96.796v-310.766h-101.891v463.602c5.095 0 5.095 0 10.189 0 56.040 0 112.080 30.567 137.552 76.418 30.567-45.851 81.512-76.418 137.552-76.418s106.985 30.567 137.552 76.418c30.567-45.851 81.512-76.418 137.552-76.418s106.985 30.567 137.552 76.418c30.567-45.851 81.512-76.418 137.552-76.418 5.095 0 5.095 0 10.189 0v-463.602h10.189zM1008.716 490.349c-56.040 0-101.891 40.756-106.985 91.701h219.065c-15.284-50.945-61.134-91.701-112.080-91.701z" />
<glyph unicode="&#xe921;" glyph-name="USUARIO" d="M695.547 301.082c96.604 57.962 164.226 164.226 164.226 289.811 0 193.208-154.566 338.113-338.113 338.113-193.208 0-338.113-154.566-338.113-338.113 0-125.585 67.623-231.849 164.226-289.811-183.547-57.962-309.132-212.528-347.774-386.415h86.943c38.642 193.208 222.189 338.113 425.057 338.113 212.528 0 386.415-144.906 425.057-338.113h86.943c-28.981 183.547-154.566 328.453-328.453 386.415zM260.83 600.554c0 144.906 115.925 260.83 260.83 260.83 135.245-9.66 251.17-125.585 251.17-260.83 0-144.906-115.925-260.83-260.83-260.83-135.245 0-251.17 115.925-251.17 260.83z" />
<glyph unicode="&#xe922;" glyph-name="USUARIOS" horiz-adv-x="1102" d="M147.948 87.55h-147.948v236.052l1.662 3.325c1.662 4.987 3.325 9.974 4.987 13.299 3.325 11.636 6.649 23.273 13.299 33.247 26.597 49.87 89.766 74.805 144.623 56.519l16.623-4.987-21.61-54.857c-8.312-21.61-9.974-43.221-9.974-63.169 0-46.545 0-91.429 0-136.312l-1.662-83.117zM33.247 120.797h81.455v53.195c0 44.883 0 89.766 0 136.312 0 21.61 1.662 48.208 11.636 74.805l8.312 19.948c-34.909 1.662-69.818-16.623-86.442-46.545-4.987-8.312-8.312-18.286-11.636-28.26-1.662-3.325-3.325-8.312-3.325-11.636v-197.818zM801.247-85.333h-502.026v139.636c0 94.753 0 191.169 0 285.922 0 53.195 11.636 98.078 36.571 137.974 41.558 66.494 103.065 106.39 179.532 118.026 124.675 18.286 244.364-59.844 275.948-181.195 6.649-23.273 9.974-44.883 9.974-64.831 0-104.727 0-209.455 0-314.182v-96.416c0-1.662 0-3.325 0-4.987v-19.948zM332.468-52.086h435.532v86.442c0 104.727 0 209.455 0 314.182 0 18.286-3.325 38.234-8.312 56.519-28.26 104.727-131.325 172.883-239.377 157.922-66.494-9.974-119.688-44.883-156.26-103.065-19.948-34.909-31.584-73.143-31.584-119.688 0-94.753 0-191.169 0-285.922v-106.39zM982.442 7.758h-209.455v106.39c0 61.506 0 123.013 0 184.519v8.312c0 63.169 0 89.766-28.26 154.597l-6.649 16.623 16.623 6.649c28.26 9.974 58.182 11.636 86.442 4.987 74.805-16.623 129.662-76.468 139.636-151.273 1.662-9.974 1.662-18.286 1.662-28.26 0-81.455 0-161.247 0-242.701v-34.909c0-1.662 0-3.325 0-6.649v-18.286zM806.234 41.005h142.961v26.597c0 81.455 0 161.247 0 242.701 0 8.312 0 16.623-1.662 24.935-8.312 61.506-53.195 109.714-113.039 123.013-18.286 3.325-34.909 3.325-51.532 1.662 24.935-59.844 24.935-91.429 23.273-151.273v-8.312c0-61.506 0-123.013 0-184.519v-74.805zM329.143 9.42h-209.455v109.714c0 63.169 0 128 0 191.169 0 71.481 29.922 124.675 86.442 159.584 43.221 26.597 91.429 33.247 139.636 18.286l14.961-4.987-4.987-14.961c-1.662-8.312-4.987-16.623-6.649-24.935-4.987-18.286-11.636-36.571-14.961-53.195s-4.987-33.247-4.987-46.545c0-74.805 0-151.273 0-226.078v-108.052zM152.935 42.667h142.961v73.143c0 74.805 0 151.273 0 226.078 0 14.961 0 34.909 4.987 54.857 4.987 18.286 9.974 38.234 16.623 56.519 0 1.662 1.662 4.987 1.662 6.649-33.247 6.649-64.831 0-96.416-18.286-48.208-28.26-71.481-71.481-71.481-131.325 0-63.169 0-128 0-191.169l1.662-76.468zM551.896 606.199c-1.662 0-1.662 0 0 0-91.429 0-166.234 74.805-166.234 166.234s74.805 166.234 166.234 166.234c0 0 0 0 0 0 91.429 0 166.234-74.805 166.234-166.234 0-44.883-16.623-86.442-48.208-118.026s-74.805-48.208-118.026-48.208zM550.234 922.044v-16.623c-73.143 0-132.987-59.844-132.987-132.987s59.844-132.987 132.987-132.987c0 0 0 0 0 0 34.909 0 69.818 13.299 94.753 39.896 24.935 24.935 38.234 58.182 38.234 94.753 0 73.143-59.844 132.987-132.987 132.987 0 0 0 0 0 0v14.961zM1100.468 87.55h-147.948v81.455c0 41.558 0 83.117 0 126.338s-6.649 76.468-23.273 106.39c-1.662 1.662-1.662 3.325-3.325 6.649l-6.649 18.286 18.286 4.987c68.156 19.948 134.649-16.623 156.26-83.117 4.987-14.961 6.649-28.26 6.649-39.896 0-49.87 0-99.74 0-149.61v-48.208c0-1.662 0-3.325 0-4.987v-18.286zM987.429 120.797h81.455v38.234c0 49.87 0 99.74 0 149.61 0 9.974-1.662 19.948-4.987 31.584-13.299 43.221-53.195 68.156-96.416 64.831 13.299-31.584 19.948-64.831 19.948-108.052 0-41.558 0-83.117 0-124.675v-51.532zM804.571 501.472c0 0 0 0 0 0-33.247 0-61.506 13.299-84.779 34.909-21.61 21.61-33.247 51.532-33.247 83.117v0c0 31.584 13.299 63.169 36.571 84.779s51.532 33.247 81.455 31.584c66.494-1.662 116.364-53.195 116.364-118.026 0-31.584-11.636-59.844-34.909-83.117-19.948-21.61-49.87-33.247-81.455-33.247zM721.455 619.498c0-23.273 8.312-43.221 23.273-59.844 16.623-16.623 36.571-24.935 59.844-24.935s43.221 8.312 59.844 24.935c16.623 16.623 24.935 36.571 24.935 58.182 0 48.208-34.909 83.117-84.779 84.779-21.61 0-41.558-6.649-58.182-23.273-14.961-14.961-24.935-36.571-24.935-59.844v0zM299.221 501.472c0 0-1.662 0-1.662 0-64.831 1.662-118.026 54.857-116.364 118.026 0 64.831 53.195 118.026 118.026 118.026 0 0 0 0 0 0 31.584 0 61.506-13.299 83.117-34.909 21.61-23.273 34.909-51.532 33.247-83.117 0-31.584-13.299-61.506-36.571-83.117-21.61-23.273-49.87-34.909-79.792-34.909zM297.558 702.615c-44.883 0-84.779-38.234-84.779-84.779 0-44.883 36.571-83.117 84.779-84.779 21.61 0 43.221 8.312 58.182 23.273 16.623 16.623 24.935 36.571 26.597 59.844v0c0 23.273-8.312 43.221-24.935 59.844-16.623 18.286-36.571 26.597-59.844 26.597 0 0 0 0 0 0zM128 443.29c-21.61 0-43.221 8.312-59.844 24.935s-24.935 38.234-24.935 59.844c0 46.545 38.234 83.117 84.779 83.117 0 0 0 0 0 0 46.545 0 84.779-38.234 84.779-84.779 0-44.883-38.234-83.117-84.779-83.117 0 0 0 0 0 0zM128 579.602c-28.26 0-51.532-23.273-51.532-51.532 0-13.299 4.987-26.597 14.961-36.571s23.273-14.961 36.571-14.961c0 0 0 0 0 0 28.26 0 51.532 23.273 51.532 51.532 0 26.597-23.273 51.532-51.532 51.532v0c0 0 0 0 0 0zM974.13 443.29c0 0-1.662 0-1.662 0-46.545 1.662-84.779 39.896-83.117 86.442 0 23.273 9.974 44.883 26.597 59.844s38.234 23.273 61.506 23.273c44.883-1.662 83.117-41.558 81.455-86.442-1.662-46.545-39.896-83.117-84.779-83.117zM974.13 579.602c-13.299 0-26.597-4.987-34.909-13.299-9.974-9.974-16.623-23.273-16.623-36.571 0-26.597 23.273-51.532 51.532-51.532 26.597 0 51.532 21.61 51.532 49.87v0c0 26.597-21.61 51.532-49.87 51.532 0 0 0 0-1.662 0z" />
<glyph unicode="&#xe923;" glyph-name="VALE-DE-PAVO" horiz-adv-x="2039" d="M1759.911 761.82v39.933c0 71.309-59.9 131.209-131.209 131.209l-1232.223 5.705c-71.309 0-131.209-59.9-131.209-131.209v-45.638c-154.028-34.228-265.27-171.142-265.27-330.875s108.39-296.646 262.418-333.727v-45.638c0-71.309 59.9-131.209 131.209-131.209l1232.223-5.705c71.309 0 131.209 59.9 131.209 131.209v39.933c159.733 28.524 282.384 171.142 282.384 336.579 0 168.29-119.799 308.056-279.532 339.432zM1711.421 165.675c-22.819 0-39.933-19.967-39.933-42.786v-79.866c0-25.671-19.967-45.638-45.638-45.638h-148.323v48.49c0 25.671-19.967 45.638-42.786 45.638s-42.786-19.967-42.786-45.638v-48.49l-750.173 2.852v48.49c0 25.671-19.967 45.638-42.786 45.638s-42.786-19.967-42.786-45.638v-48.49h-165.437c-25.671 0-45.638 19.967-45.638 45.638v79.866c0 22.819-17.114 39.933-37.081 42.786-128.357 17.114-225.337 125.504-225.337 256.713s96.981 239.599 228.189 253.861c19.967 2.852 37.081 19.967 37.081 42.786v79.866c2.852 31.376 22.819 51.343 48.49 51.343h165.437v-48.49c0-25.671 19.967-45.638 42.786-45.638s42.786 19.967 42.786 45.638v48.49l750.173-2.852v-48.49c0-25.671 19.967-45.638 42.786-45.638s42.786 19.967 42.786 45.638v48.49h148.323c25.671 0 45.638-19.967 45.638-45.638v-79.866c0-22.819 17.114-39.933 39.933-42.786 134.061-8.557 239.599-122.652 239.599-259.565-2.852-134.061-111.242-248.156-245.304-256.713zM601.85 741.854c-22.819 0-42.786-19.967-42.786-45.638v-51.343c0-25.671 19.967-45.638 42.786-45.638s42.786 19.967 42.786 45.638v51.343c0 25.671-17.114 45.638-42.786 45.638zM601.85 579.269c-22.819 0-42.786-19.967-42.786-45.638v-51.343c0-25.671 19.967-45.638 42.786-45.638s42.786 19.967 42.786 45.638v51.343c0 25.671-19.967 45.638-42.786 45.638zM601.85 419.536c-22.819 0-42.786-19.967-42.786-45.638v-51.343c0-25.671 19.967-45.638 42.786-45.638s42.786 19.967 42.786 45.638v51.343c0 25.671-19.967 45.638-42.786 45.638zM601.85 256.951c-22.819 0-42.786-19.967-42.786-45.638v-51.343c0-25.671 19.967-45.638 42.786-45.638s42.786 19.967 42.786 45.638v51.343c0 25.671-19.967 45.638-42.786 45.638zM1437.593 739.001c-22.819 0-42.786-19.967-42.786-45.638v-51.343c0-25.671 19.967-45.638 42.786-45.638s42.786 19.967 42.786 45.638v51.343c0 25.671-19.967 45.638-42.786 45.638zM1437.593 416.684c-22.819 0-42.786-19.967-42.786-45.638v-51.343c0-25.671 19.967-45.638 42.786-45.638s42.786 19.967 42.786 45.638v51.343c0 25.671-19.967 45.638-42.786 45.638zM1437.593 576.416c-22.819 0-42.786-19.967-42.786-45.638v-51.343c0-25.671 19.967-45.638 42.786-45.638s42.786 19.967 42.786 45.638v51.343c0 25.671-19.967 45.638-42.786 45.638zM1434.741 254.099c-22.819 0-42.786-19.967-42.786-45.638v-51.343c0-25.671 19.967-45.638 42.786-45.638s42.786 19.967 42.786 45.638v51.343c0 25.671-17.114 45.638-42.786 45.638zM1243.632 533.631h-96.981c-14.262 0-31.376 14.262-34.228 25.671l-28.524 94.128c-14.262 45.638-45.638 51.343-57.047 51.343s-42.786-5.705-57.047-51.343l-31.376-91.276c-2.852-11.409-22.819-25.671-34.228-25.671h-96.981c-48.49 0-62.752-28.524-68.457-39.933-2.852-11.409-8.557-42.786 31.376-71.309l79.866-57.047c11.409-8.557 17.114-28.524 14.262-42.786l-37.081-91.276c-8.557-25.671-5.705-48.49 5.705-65.604 8.557-14.262 25.671-19.967 42.786-19.967 14.262 0 31.376 5.705 45.638 17.114l79.866 57.047c5.705 2.852 14.262 5.705 22.819 5.705s17.114-2.852 22.819-5.705l79.866-57.047c17.114-11.409 31.376-17.114 45.638-17.114v0c17.114 0 31.376 8.557 42.786 19.967 11.409 17.114 14.262 37.081 5.705 65.604l-28.524 94.128c-2.852 11.409 2.852 34.228 14.262 42.786l79.866 57.047c39.933 28.524 34.228 59.9 31.376 71.309-11.409 8.557-25.671 34.228-74.162 34.228zM1149.504 436.65c-39.933-28.524-59.9-88.423-45.638-136.914l8.557-22.819-19.967 14.262c-19.967 14.262-45.638 22.819-71.309 22.819s-51.343-8.557-71.309-22.819l-19.967-14.262 8.557 22.819c17.114 48.49-2.852 105.538-42.786 136.914l-19.967 14.262h25.671c51.343 0 99.833 37.081 116.947 82.719l8.557 22.819 8.557-22.819c14.262-48.49 65.604-85.571 116.947-85.571h25.671l-28.524-11.409z" />
<glyph unicode="&#xe924;" glyph-name="VIDEO" d="M778.079 440.777l-376.945 256c-6.047 4.031-12.094 4.031-18.142 0-6.047-2.016-8.063-8.063-8.063-14.11v-512c0-6.047 4.031-12.094 10.079-14.11 2.016-2.016 6.047-2.016 8.063-2.016 4.031 0 6.047 2.016 10.079 2.016l374.929 256c4.031 4.031 8.063 8.063 8.063 14.11-2.016 6.047-4.031 12.094-8.063 14.11zM409.197 202.919v447.496l328.567-223.748-328.567-223.748zM512 938.667c-282.205 0-512-229.795-512-512s229.795-512 512-512c282.205 0 512 229.795 512 512s-229.795 512-512 512zM512-51.065c-264.063 0-477.732 213.669-477.732 477.732s213.669 477.732 477.732 477.732c264.063 0 477.732-213.669 477.732-477.732 0-262.047-215.685-477.732-477.732-477.732z" />
<glyph unicode="&#xe925;" glyph-name="YOU-TUBE" horiz-adv-x="1437" d="M1421.813 702.926c-7.367 95.77-66.302 213.64-184.173 221.007-324.144 14.734-707.223 22.101-1046.101-7.367-103.137-7.367-169.439-132.604-176.806-228.374-14.734-198.906-14.734-316.777 0-515.683 7.367-95.77 73.669-221.007 184.173-235.741 338.878-22.101 721.957-22.101 1046.101 0 103.137 14.734 176.806 139.971 184.173 235.741 7.367 198.906 7.367 324.144-7.367 530.417zM537.784 172.509v515.683l449.381-257.842-449.381-257.842z" />
</font>
</defs>
</svg>
